<svg xmlns="http://www.w3.org/2000/svg" width="22.5" height="30" viewBox="0 0 22.5 30">
  <path id="artificial-Intellience" d="M22.5-17.812A4.686,4.686,0,0,0,17.812-22.5a4.686,4.686,0,0,0-4.687,4.687A4.693,4.693,0,0,0,16.963-13.2a3.942,3.942,0,0,1-.744,2.344C15.193-9.58,13.107-9.381,10.9-9.176a13.576,13.576,0,0,0-4.711.99,4.524,4.524,0,0,0-.568.334v-9.117a4.69,4.69,0,0,0,3.75-4.594A4.686,4.686,0,0,0,4.687-26.25,4.686,4.686,0,0,0,0-21.562a4.69,4.69,0,0,0,3.75,4.594V-5.531A4.69,4.69,0,0,0,0-.937,4.686,4.686,0,0,0,4.687,3.75,4.686,4.686,0,0,0,9.375-.937,4.688,4.688,0,0,0,5.924-5.461,2.4,2.4,0,0,1,7.037-6.516a12.188,12.188,0,0,1,4.037-.8c2.5-.234,5.08-.475,6.6-2.373a5.8,5.8,0,0,0,1.16-3.557A4.675,4.675,0,0,0,22.5-17.812ZM1.875-21.562a2.813,2.813,0,0,1,2.812-2.812A2.813,2.813,0,0,1,7.5-21.562,2.813,2.813,0,0,1,4.687-18.75,2.813,2.813,0,0,1,1.875-21.562ZM7.5-.937A2.813,2.813,0,0,1,4.687,1.875,2.813,2.813,0,0,1,1.875-.937a2.814,2.814,0,0,1,2.8-2.812h.035A2.816,2.816,0,0,1,7.5-.937Zm11-14.15L17.812-15A2.813,2.813,0,0,1,15-17.812a2.813,2.813,0,0,1,2.812-2.812,2.813,2.813,0,0,1,2.812,2.812A2.815,2.815,0,0,1,18.5-15.088Z" transform="translate(0 26.25)" fill="#fd5545"/>
</svg>
