<svg xmlns="http://www.w3.org/2000/svg" width="25" height="17.5" viewBox="0 0 25 17.5">
  <path id="banking" d="M23.75-16.25H1.25A1.25,1.25,0,0,0,0-15V0A1.25,1.25,0,0,0,1.25,1.25h22.5A1.25,1.25,0,0,0,25,0V-15A1.25,1.25,0,0,0,23.75-16.25ZM23.75,0H1.25V-15h22.5ZM11.562-5h3.125A.312.312,0,0,0,15-5.312v-.625a.312.312,0,0,0-.312-.312H11.562a.312.312,0,0,0-.312.312v.625A.312.312,0,0,0,11.562-5Zm9.375-1.25H17.812a.312.312,0,0,0-.312.312v.625A.312.312,0,0,0,17.812-5h3.125a.312.312,0,0,0,.313-.312v-.625A.312.312,0,0,0,20.937-6.25Zm-9.375-2.5h9.375a.312.312,0,0,0,.313-.312v-.625A.312.312,0,0,0,20.937-10H11.562a.312.312,0,0,0-.312.312v.625A.312.312,0,0,0,11.562-8.75Zm-6.3,1.317,1.648.447a.353.353,0,0,1,.277.324.369.369,0,0,1-.393.34H5.766a.973.973,0,0,1-.46-.115.3.3,0,0,0-.361.046l-.471.5a.29.29,0,0,0,.044.437,2.2,2.2,0,0,0,1.107.372v.4a.312.312,0,0,0,.312.312h.625a.312.312,0,0,0,.312-.312v-.4A1.608,1.608,0,0,0,8.437-6.662a1.6,1.6,0,0,0-1.2-1.53L5.589-8.639a.353.353,0,0,1-.277-.324.369.369,0,0,1,.393-.34H6.734a.973.973,0,0,1,.46.115.3.3,0,0,0,.361-.046l.471-.5a.29.29,0,0,0-.044-.437,2.2,2.2,0,0,0-1.107-.372v-.4a.312.312,0,0,0-.312-.312H5.937a.312.312,0,0,0-.312.313v.4A1.608,1.608,0,0,0,4.062-8.963,1.6,1.6,0,0,0,5.262-7.433Z" transform="translate(0 16.25)" fill="#fff"/>
</svg>
