<svg xmlns="http://www.w3.org/2000/svg" width="20" height="20" viewBox="0 0 20 20">
  <path id="category" d="M11.25-8.75H20A1.25,1.25,0,0,0,21.25-10v-5A1.25,1.25,0,0,0,20-16.25H15.625l-1.25-1.25H11.25A1.25,1.25,0,0,0,10-16.25v2.5H2.5v-3.437a.313.313,0,0,0-.312-.312H1.562a.313.313,0,0,0-.312.312V-1.875a.625.625,0,0,0,.625.625H10v2.5A1.25,1.25,0,0,0,11.25,2.5H20a1.25,1.25,0,0,0,1.25-1.25v-5A1.25,1.25,0,0,0,20-5H15.625l-1.25-1.25H11.25A1.25,1.25,0,0,0,10-5v2.5H2.5v-10H10V-10A1.25,1.25,0,0,0,11.25-8.75Zm0,3.75h2.607l1.25,1.25H20v5H11.25Zm0-11.25h2.607L15.107-15H20v5H11.25Z" transform="translate(-1.25 17.5)" fill="#fd5545"/>
</svg>
