<svg xmlns="http://www.w3.org/2000/svg" width="30" height="21" viewBox="0 0 30 21">
  <path id="customer-needs" d="M24-10.5a6,6,0,0,0-6,6,6,6,0,0,0,6,6,6,6,0,0,0,6-6A6,6,0,0,0,24-10.5ZM24,0a4.5,4.5,0,0,1-4.5-4.5A4.5,4.5,0,0,1,24-9a4.5,4.5,0,0,1,4.5,4.5A4.5,4.5,0,0,1,24,0Zm2.75-5.5H25V-7.25a.25.25,0,0,0-.25-.25h-1.5a.25.25,0,0,0-.25.25V-5.5H21.25a.25.25,0,0,0-.25.25v1.5a.25.25,0,0,0,.25.25H23v1.75a.25.25,0,0,0,.25.25h1.5A.25.25,0,0,0,25-1.75V-3.5h1.75A.25.25,0,0,0,27-3.75v-1.5A.25.25,0,0,0,26.75-5.5ZM15-9a5.252,5.252,0,0,0,5.25-5.25A5.252,5.252,0,0,0,15-19.5a5.252,5.252,0,0,0-5.25,5.25v0A5.249,5.249,0,0,0,15-9Zm0-9a3.751,3.751,0,0,1,3.75,3.75A3.751,3.751,0,0,1,15-10.5a3.751,3.751,0,0,1-3.75-3.75A3.759,3.759,0,0,1,15-18ZM4.5-10.5a3.751,3.751,0,0,0,3.75-3.75A3.751,3.751,0,0,0,4.5-18,3.751,3.751,0,0,0,.75-14.25,3.751,3.751,0,0,0,4.5-10.5Zm0-6a2.251,2.251,0,0,1,2.25,2.25A2.251,2.251,0,0,1,4.5-12a2.251,2.251,0,0,1-2.25-2.25A2.251,2.251,0,0,1,4.5-16.5ZM18.038,0H8.25A.75.75,0,0,1,7.5-.75v-2.1a4.571,4.571,0,0,1,.661-2.17,3.669,3.669,0,0,1,3.08-1.537C12.52-6.562,12.984-6,15-6h.085A9.253,9.253,0,0,0,16.7-6.172a8.88,8.88,0,0,1,.641-1.71A7.794,7.794,0,0,1,15-7.5c-1.8,0-2.189-.562-3.755-.562a5.166,5.166,0,0,0-4.327,2.2A6.3,6.3,0,0,0,6-2.86V-.75A2.251,2.251,0,0,0,8.25,1.5h11.3A9.057,9.057,0,0,1,18.038,0ZM7.364-8.4A4,4,0,0,0,5.437-9H3.562A3.665,3.665,0,0,0,0-5.25a.75.75,0,0,0,.75.75.75.75,0,0,0,.75-.75A2.166,2.166,0,0,1,3.562-7.5H5.437a2.222,2.222,0,0,1,.736.155A7.817,7.817,0,0,1,7.364-8.4Z" transform="translate(0 19.5)" fill="#fff"/>
</svg>
