<svg xmlns="http://www.w3.org/2000/svg" width="27" height="24" viewBox="0 0 27 24">
  <path id="data-analysis" d="M3.75-4.5h-3A.75.75,0,0,0,0-3.75v6A.75.75,0,0,0,.75,3h3a.75.75,0,0,0,.75-.75v-6A.75.75,0,0,0,3.75-4.5ZM3,1.5H1.5V-3H3ZM26.25-12h-3a.75.75,0,0,0-.75.75V2.25a.75.75,0,0,0,.75.75h3A.75.75,0,0,0,27,2.25v-13.5A.75.75,0,0,0,26.25-12ZM25.5,1.5H24v-12h1.5ZM23.567-16.843a2.234,2.234,0,0,0,1.183.343A2.25,2.25,0,0,0,27-18.75,2.25,2.25,0,0,0,24.75-21a2.25,2.25,0,0,0-2.25,2.25,2.225,2.225,0,0,0,.133.733l-4.2,3.36A2.231,2.231,0,0,0,17.25-15a2.231,2.231,0,0,0-1.183.344l-4.2-3.36A2.223,2.223,0,0,0,12-18.75,2.25,2.25,0,0,0,9.75-21,2.25,2.25,0,0,0,7.5-18.75a2.228,2.228,0,0,0,.225.965l-4.51,4.51A2.228,2.228,0,0,0,2.25-13.5,2.25,2.25,0,0,0,0-11.25,2.25,2.25,0,0,0,2.25-9,2.25,2.25,0,0,0,4.5-11.25a2.228,2.228,0,0,0-.225-.965l4.51-4.51a2.228,2.228,0,0,0,.965.225,2.231,2.231,0,0,0,1.183-.344l4.2,3.36A2.229,2.229,0,0,0,15-12.75a2.25,2.25,0,0,0,2.25,2.25,2.25,2.25,0,0,0,2.25-2.25,2.229,2.229,0,0,0-.133-.734ZM24.75-19.5a.751.751,0,0,1,.75.75.751.751,0,0,1-.75.75.751.751,0,0,1-.75-.75A.751.751,0,0,1,24.75-19.5Zm-22.5,9a.751.751,0,0,1-.75-.75A.751.751,0,0,1,2.25-12a.751.751,0,0,1,.75.75A.751.751,0,0,1,2.25-10.5ZM9.75-18A.751.751,0,0,1,9-18.75a.751.751,0,0,1,.75-.75.751.751,0,0,1,.75.75A.751.751,0,0,1,9.75-18Zm7.5,6a.751.751,0,0,1-.75-.75.751.751,0,0,1,.75-.75.751.751,0,0,1,.75.75A.751.751,0,0,1,17.25-12Zm-6,0h-3a.75.75,0,0,0-.75.75V2.25A.75.75,0,0,0,8.25,3h3A.75.75,0,0,0,12,2.25v-13.5A.75.75,0,0,0,11.25-12ZM10.5,1.5H9v-12h1.5ZM18.75-6h-3a.75.75,0,0,0-.75.75v7.5a.75.75,0,0,0,.75.75h3a.75.75,0,0,0,.75-.75v-7.5A.75.75,0,0,0,18.75-6ZM18,1.5H16.5v-6H18Z" transform="translate(0 21)" fill="#fd5545"/>
</svg>
