<svg xmlns="http://www.w3.org/2000/svg" width="22.5" height="23.998" viewBox="0 0 22.5 23.998">
  <path id="data-security" d="M21.867-17.077l-9-3.75A2.691,2.691,0,0,0,12-21a2.691,2.691,0,0,0-.865.172l-9,3.75A2.248,2.248,0,0,0,.75-15C.75-5.7,6.117.736,11.133,2.827a2.257,2.257,0,0,0,1.73,0C16.88,1.153,23.25-4.627,23.25-15A2.25,2.25,0,0,0,21.867-17.077ZM12.291,1.444a.767.767,0,0,1-.577,0C7.125-.375,2.25-6.75,2.25-15a.753.753,0,0,1,.459-.694l9-3.75a.767.767,0,0,1,.577,0l9,3.75a.739.739,0,0,1,.459.694C21.75-6.75,16.875-.375,12.291,1.444Zm6.384-15.234a.567.567,0,0,0-.8,0L10.219-6.2,6.984-9.455a.567.567,0,0,0-.8,0l-.4.4a.567.567,0,0,0,0,.8L9.811-4.2a.567.567,0,0,0,.8,0l8.461-8.391a.567.567,0,0,0,0-.8Z" transform="translate(-0.75 20.999)" fill="#fff"/>
</svg>
