<svg xmlns="http://www.w3.org/2000/svg" width="27.5" height="22" viewBox="0 0 27.5 22">
  <path id="deep-insights" d="M13.062-4.125H11V-16.5a2.758,2.758,0,0,0-2.75-2.75H-8.25A2.758,2.758,0,0,0-11-16.5V-4.125h-2.062a.69.69,0,0,0-.687.687v2.062A4.137,4.137,0,0,0-9.625,2.75H9.625A4.137,4.137,0,0,0,13.75-1.375V-3.437A.69.69,0,0,0,13.062-4.125Zm-22-12.375a.7.7,0,0,1,.687-.687H8.25a.7.7,0,0,1,.687.688V-4.125H-8.938ZM11.687-1.375A2.065,2.065,0,0,1,9.625.687H-9.625a2.065,2.065,0,0,1-2.062-2.062v-.687h7.773a1.355,1.355,0,0,0,1.164.687h5.5a1.356,1.356,0,0,0,1.164-.687h7.773ZM-1.819-8.007l.486-.486a.688.688,0,0,0,0-.972L-2.868-11l1.534-1.535a.688.688,0,0,0,0-.972l-.486-.486a.688.688,0,0,0-.972,0L-5.3-11.486a.687.687,0,0,0,0,.972l2.507,2.507A.688.688,0,0,0-1.819-8.007Zm3.153-.486.486.486a.688.688,0,0,0,.972,0L5.3-10.514a.687.687,0,0,0,0-.972L2.792-13.993a.688.688,0,0,0-.972,0l-.486.486a.688.688,0,0,0,0,.972L2.868-11,1.334-9.465A.688.688,0,0,0,1.334-8.493Z" transform="translate(13.75 19.25)" fill="#fff"/>
</svg>
