<svg xmlns="http://www.w3.org/2000/svg" width="27.002" height="23.998" viewBox="0 0 27.002 23.998">
  <path id="encryptions" d="M10.711,2.991a.284.284,0,0,0,.347-.2l6.6-23.1a.279.279,0,0,0-.192-.347l-1.172-.333a.279.279,0,0,0-.347.192l-6.6,23.1a.279.279,0,0,0,.192.347ZM7.167-2.883l.867-.98A.233.233,0,0,0,8.011-4.2L2.339-9l5.672-4.8a.233.233,0,0,0,.023-.333l-.867-.98a.232.232,0,0,0-.333-.019L.08-9.173a.232.232,0,0,0,0,.352L6.834-2.859A.237.237,0,0,0,7.167-2.883Zm13,.019L26.92-8.827a.232.232,0,0,0,0-.352l-6.755-5.958a.241.241,0,0,0-.333.019l-.867.98a.233.233,0,0,0,.023.333L24.661-9,18.989-4.2a.233.233,0,0,0-.023.333l.867.98A.232.232,0,0,0,20.166-2.864Z" transform="translate(0.001 20.997)" fill="#fd5545"/>
</svg>
