<svg xmlns="http://www.w3.org/2000/svg" width="30" height="24" viewBox="0 0 30 24">
  <path id="method" d="M28.5-4.5H27V-9.075A1.426,1.426,0,0,0,25.574-10.5H15.75v-3H18A1.5,1.5,0,0,0,19.5-15v-4.5A1.5,1.5,0,0,0,18-21H12a1.5,1.5,0,0,0-1.5,1.5V-15A1.5,1.5,0,0,0,12-13.5h2.25v3H4.425A1.426,1.426,0,0,0,3-9.075V-4.5H1.5A1.5,1.5,0,0,0,0-3V1.5A1.5,1.5,0,0,0,1.5,3H6A1.5,1.5,0,0,0,7.5,1.5V-3A1.5,1.5,0,0,0,6-4.5H4.5V-9h9.75v4.5h-1.5A1.5,1.5,0,0,0,11.25-3V1.5A1.5,1.5,0,0,0,12.75,3h4.5a1.5,1.5,0,0,0,1.5-1.5V-3a1.5,1.5,0,0,0-1.5-1.5h-1.5V-9H25.5v4.5H24A1.5,1.5,0,0,0,22.5-3V1.5A1.5,1.5,0,0,0,24,3h4.5A1.5,1.5,0,0,0,30,1.5V-3A1.5,1.5,0,0,0,28.5-4.5ZM6-3V1.5H1.5V-3ZM17.25-3V1.5h-4.5V-3ZM12-15v-4.5h6V-15ZM28.5,1.5H24V-3h4.5Z" transform="translate(0 21)" fill="#fd5545"/>
</svg>
