<svg xmlns="http://www.w3.org/2000/svg" width="26.203" height="12.605" viewBox="0 0 26.203 12.605">
  <g id="ring-chart" transform="translate(-1073.5 -3116)">
    <path id="Path_760" data-name="Path 760" d="M0-106a12.194,12.194,0,0,1,8.622,3.572L6.914-100.72A9.778,9.778,0,0,0,0-103.584Z" transform="translate(1087.073 3222)" fill="#fb7064"/>
    <path id="Path_761" data-name="Path 761" d="M61.812-74.953a12.194,12.194,0,0,1,3.572,8.622H62.968A9.778,9.778,0,0,0,60.1-73.245Z" transform="translate(1034.319 3194.936)" fill="#fb7064"/>
    <path id="Path_766" data-name="Path 766" d="M-106-66.331a12.194,12.194,0,0,1,3.572-8.622l1.708,1.708a9.778,9.778,0,0,0-2.864,6.914Z" transform="translate(1179.5 3194.936)" fill="#fb7064"/>
    <path id="Path_767" data-name="Path 767" d="M-74.953-102.428A12.194,12.194,0,0,1-66.331-106v2.416a9.778,9.778,0,0,0-6.914,2.864Z" transform="translate(1152.461 3222)" fill="#fb7064"/>
    <path id="Path_768" data-name="Path 768" d="M0,43" transform="translate(1086.517 3084.183)" fill="none" stroke="#707070" stroke-width="5"/>
    <path id="Path_769" data-name="Path 769" d="M.145.1l.328,8.5a.237.237,0,1,1-.473,0L.145.1Z" transform="translate(1090.074 3120.324) rotate(25)" fill="#434343"/>
    <circle id="Ellipse_76" data-name="Ellipse 76" cx="0.5" cy="0.5" r="0.5" transform="translate(1082.703 3120.781)" fill="#fb7064"/>
    <circle id="Ellipse_77" data-name="Ellipse 77" cx="0.5" cy="0.5" r="0.5" transform="translate(1089.703 3120.781)" fill="#fb7064"/>
    <circle id="Ellipse_78" data-name="Ellipse 78" cx="0.5" cy="0.5" r="0.5" transform="translate(1093.703 3125.781)" fill="#fb7064"/>
    <circle id="Ellipse_75" data-name="Ellipse 75" cx="0.5" cy="0.5" r="0.5" transform="translate(1077.703 3125.781)" fill="#fb7064"/>
  </g>
</svg>
