<svg xmlns="http://www.w3.org/2000/svg" width="24.75" height="22" viewBox="0 0 24.75 22">
  <path id="saas-dashboards" d="M10.312-19.25H-10.313a2.063,2.063,0,0,0-2.062,2.062V-4.812A2.063,2.063,0,0,0-10.313-2.75H10.312a2.063,2.063,0,0,0,2.062-2.062V-17.187A2.063,2.063,0,0,0,10.312-19.25Zm-20.625,2.32a.259.259,0,0,1,.258-.258H10.055a.259.259,0,0,1,.258.258V-6.875H-10.313ZM8.25,1.719A1.029,1.029,0,0,0,7.219.687H2.982l-.8-2.4a.514.514,0,0,0-.49-.352H-1.689a.514.514,0,0,0-.49.352l-.8,2.4H-7.219A1.029,1.029,0,0,0-8.25,1.719,1.029,1.029,0,0,0-7.219,2.75H7.219A1.029,1.029,0,0,0,8.25,1.719Z" transform="translate(12.375 19.25)" fill="#fff"/>
</svg>
