<svg xmlns="http://www.w3.org/2000/svg" width="21" height="24" viewBox="0 0 21 24">
  <path id="security" d="M10.5-1.312a.94.94,0,0,0,.937-.937v-3a.94.94,0,0,0-.937-.937.94.94,0,0,0-.937.937v3A.94.94,0,0,0,10.5-1.312ZM21-8.25a2.251,2.251,0,0,0-2.25-2.25H18v-2.93A7.547,7.547,0,0,0,10.523-21,7.506,7.506,0,0,0,3-13.5v3H2.25A2.251,2.251,0,0,0,0-8.25v9A2.251,2.251,0,0,0,2.25,3h16.5A2.251,2.251,0,0,0,21,.75ZM4.5-10.5v-3a6.006,6.006,0,0,1,6-6,6.006,6.006,0,0,1,6,6v3ZM19.5.75a.752.752,0,0,1-.75.75H2.25A.752.752,0,0,1,1.5.75v-9A.752.752,0,0,1,2.25-9h16.5a.752.752,0,0,1,.75.75Z" transform="translate(0 21)" fill="#fd5545"/>
</svg>
