<svg xmlns="http://www.w3.org/2000/svg" width="24.75" height="22" viewBox="0 0 24.75 22">
  <path id="targeted-marketing" d="M11-11.306v-6.569A1.389,1.389,0,0,0,9.625-19.25h0a1.372,1.372,0,0,0-.859.3L5.113-16.025A10.429,10.429,0,0,1-1.375-13.75h-8.25A2.75,2.75,0,0,0-12.375-11v4.125a2.75,2.75,0,0,0,2.75,2.75L-9.646-2.75a10.885,10.885,0,0,0,1.1,4.767,1.348,1.348,0,0,0,1.22.733H-2.76A1.366,1.366,0,0,0-1.647.578,5.472,5.472,0,0,1-2.771-2.75a5.2,5.2,0,0,1,.189-1.375h1.207A10.427,10.427,0,0,1,5.112-1.85L8.766,1.073a1.6,1.6,0,0,0,.859.3A1.38,1.38,0,0,0,11,0V-6.569a2.738,2.738,0,0,0,1.375-2.368A2.737,2.737,0,0,0,11-11.306ZM-6.887.687a8.771,8.771,0,0,1-.7-3.437,9.624,9.624,0,0,1,.112-1.375h2.789A7.2,7.2,0,0,0-4.834-2.75,7.492,7.492,0,0,0-4.008.687Zm4.824-6.875H-9.625a.688.688,0,0,1-.687-.687V-11a.688.688,0,0,1,.687-.687h7.562Zm11,4.757L6.4-3.461A12.5,12.5,0,0,0,0-6.1v-5.673a12.5,12.5,0,0,0,6.4-2.641l2.536-2.029Z" transform="translate(12.375 19.25)" fill="#fff"/>
</svg>
