<svg xmlns="http://www.w3.org/2000/svg" width="32" height="25.99" viewBox="0 0 32 25.99">
  <path id="twitter" d="M12.711-18.518A14.1,14.1,0,0,0,16-21.909a13.148,13.148,0,0,1-3.777,1.015,6.541,6.541,0,0,0,2.883-3.614,12.911,12.911,0,0,1-4.162,1.584,6.543,6.543,0,0,0-4.792-2.071A6.555,6.555,0,0,0-.406-18.436a7.4,7.4,0,0,0,.162,1.5A18.642,18.642,0,0,1-13.767-23.8a6.509,6.509,0,0,0-.893,3.31,6.554,6.554,0,0,0,2.924,5.462,6.6,6.6,0,0,1-2.964-.832v.081A6.559,6.559,0,0,0-9.442-9.34a6.935,6.935,0,0,1-1.726.223,8.266,8.266,0,0,1-1.239-.1A6.57,6.57,0,0,0-6.274-4.67a13.135,13.135,0,0,1-8.142,2.8A13.573,13.573,0,0,1-16-1.949,18.533,18.533,0,0,0-5.929.995c12.061,0,18.66-9.99,18.66-18.66C12.731-17.949,12.731-18.233,12.711-18.518Z" transform="translate(16 24.995)" fill="#fd5545"/>
</svg>
