<svg xmlns="http://www.w3.org/2000/svg" width="21" height="24" viewBox="0 0 21 24">
  <path id="virtual-engagement" d="M7.022-3.7l-.37,2.17A1.306,1.306,0,0,0,7.177-.248,1.334,1.334,0,0,0,7.945,0,1.293,1.293,0,0,0,8.555-.15L10.5-1.172,12.445-.15a1.306,1.306,0,0,0,1.383-.1,1.306,1.306,0,0,0,.525-1.284l-.37-2.17,1.57-1.533a1.305,1.305,0,0,0,.333-1.345,1.3,1.3,0,0,0-1.059-.891l-2.175-.319-.97-1.973A1.318,1.318,0,0,0,10.5-10.5a1.3,1.3,0,0,0-1.172.731L8.358-7.8l-2.175.319a1.3,1.3,0,0,0-1.059.891,1.305,1.305,0,0,0,.333,1.345ZM9.347-6.427,10.5-8.766l1.153,2.339,2.578.375L12.366-4.228l.441,2.569L10.5-2.869,8.194-1.655l.441-2.569L6.769-6.047ZM18.75-18H16.5v-2.625A.376.376,0,0,0,16.125-21h-.75a.376.376,0,0,0-.375.375V-18H6v-2.625A.376.376,0,0,0,5.625-21h-.75a.376.376,0,0,0-.375.375V-18H2.25A2.251,2.251,0,0,0,0-15.75V.75A2.251,2.251,0,0,0,2.25,3h16.5A2.251,2.251,0,0,0,21,.75v-16.5A2.251,2.251,0,0,0,18.75-18ZM19.5.75a.752.752,0,0,1-.75.75H2.25A.752.752,0,0,1,1.5.75V-12h18Zm0-14.25H1.5v-2.25a.752.752,0,0,1,.75-.75h16.5a.752.752,0,0,1,.75.75Z" transform="translate(0 21)" fill="#fff"/>
</svg>
