<svg xmlns="http://www.w3.org/2000/svg" xmlns:xlink="http://www.w3.org/1999/xlink" viewBox="0 0 45.49 47.12"><defs><style>.cls-1{fill:url(#linear-gradient);}</style><linearGradient id="linear-gradient" y1="23.56" x2="45.49" y2="23.56" gradientUnits="userSpaceOnUse"><stop offset="0" stop-color="#58c7dc"/><stop offset="1" stop-color="#4c76a3"/></linearGradient></defs><title>hand-bank</title><g id="Layer_2" data-name="Layer 2"><g id="Layer_1-2" data-name="Layer 1"><path class="cls-1" d="M7.23,36.51a.92.92,0,1,1-.92.92A.92.92,0,0,1,7.23,36.51ZM41.56,26.45a.92.92,0,1,0,.92-.92A.92.92,0,0,0,41.56,26.45ZM30.41,17.1H32a.66.66,0,0,1,.66.66.92.92,0,1,0,1.84,0A2.5,2.5,0,0,0,32,15.26v-.79a.92.92,0,1,0-1.84,0v.8a2.65,2.65,0,0,0-2.44,2.64v.82a2.65,2.65,0,0,0,2.65,2.65h1.41a.81.81,0,0,1,.81.81V23a.81.81,0,0,1-.81.81H30.26a.66.66,0,0,1-.66-.66.92.92,0,0,0-1.84,0,2.5,2.5,0,0,0,2.44,2.5v.79a.92.92,0,1,0,1.84,0v-.8A2.65,2.65,0,0,0,34.48,23v-.82a2.65,2.65,0,0,0-2.65-2.65H30.41a.81.81,0,0,1-.81-.81v-.82A.81.81,0,0,1,30.41,17.1ZM45.26,33.88a3.49,3.49,0,0,1-1.86,1.94L31.54,41.07a8.68,8.68,0,0,1-7.39-.17l-4.34-2.16A6.84,6.84,0,0,0,14,38.61l-.08,0a2.28,2.28,0,0,1-1.26,2.66L1.34,47A.92.92,0,0,1,0,46.2V30.57a.92.92,0,0,1,.55-.84l5.82-2.55A2.28,2.28,0,0,1,9.19,28l4.51-2a10.79,10.79,0,0,1,4.47-.92V20.16A11,11,0,0,1,27.1,9.41V6.65L24.81,2.52a.92.92,0,0,1,.47-1.31l3-1.15a.92.92,0,0,1,.67,0l1.88.75L32.93.05a.92.92,0,0,1,.69,0l2.85,1.3a.92.92,0,0,1,.41,1.3l-2.33,4V9.43A11,11,0,0,1,43.4,20.16v2.4a.92.92,0,0,1-1.84,0v-2.4a9.11,9.11,0,0,0-9.1-9.1H29.1a9.11,9.11,0,0,0-9.1,9.1v5.09a10.91,10.91,0,0,1,1.79.49l8.73,3.21a3.38,3.38,0,0,1-1.17,6.56,3.36,3.36,0,0,1-1.08-.18L21.52,33a.92.92,0,0,1,.59-1.74l6.75,2.28a1.54,1.54,0,0,0,1-2.91l-8.73-3.21a8.93,8.93,0,0,0-6.72.21l-4.48,2,3.22,7.29.06,0a8.68,8.68,0,0,1,7.39.17L25,39.25a6.84,6.84,0,0,0,5.83.13l11.86-5.24a1.67,1.67,0,0,0-1.34-3.06l-5.79,2.67a.92.92,0,0,1-.77-1.67l5.8-2.67h0a3.51,3.51,0,0,1,4.69,4.48ZM26.93,2.55l1.63,2.94h4.56l1.67-2.86L33.2,1.91l-2.09.75a.92.92,0,0,1-.65,0l-1.87-.75ZM29.1,9.23h3.62V7.33H28.94v1.9Zm-17,29.83L7.91,29.56h0l-.21-.48a.44.44,0,0,0-.58-.22L1.84,31.17v7.75l1.78-.87a.92.92,0,0,1,.81,1.65L1.84,41V44.7l10-5,0,0A.44.44,0,0,0,12.1,39.06Z"/></g></g></svg>