<?xml version="1.0" encoding="UTF-8"?>
<svg width="601px" height="276px" viewBox="0 0 601 276" version="1.1" xmlns="http://www.w3.org/2000/svg" xmlns:xlink="http://www.w3.org/1999/xlink">
    <!-- Generator: Sketch 64 (93537) - https://sketch.com -->
    <title>img-partner-5</title>
    <desc>Created with Sketch.</desc>
    <g id="Page-1" stroke="none" stroke-width="1" fill="none" fill-rule="evenodd">
        <g id="img-partner-5" fill-rule="nonzero">
            <path d="M268.7,234.8 C268.7,232.1 268.7,225.8 267.9,223.6 C267,220.6 263.4,220.7 260.7,220.7 L260.7,218.8 C264.7,218.9 268.7,219.1 272.8,219.1 C276.2,219 279.5,218.9 282.8,218.8 C291.7,218.5 303.6,220.8 303.6,232.1 C303.6,239.8 297.3,243.1 290.9,245 L290.9,245.2 C295.6,245.6 299.9,246.4 303.2,248.7 C307.2,251.4 309.7,255.5 309.7,260.4 C309.7,266 306.2,270.1 301.5,272.6 C296.9,275 290.9,274.8 286,274.8 C282.3,274.7 278.7,274.5 274.9,274.5 C270.2,274.6 265.4,274.8 260.6,274.8 L260.6,272.9 C263.3,272.9 266.8,273 267.8,270 C268.6,267.7 268.6,261.5 268.6,258.8 L268.6,234.8 L268.7,234.8 Z M277.4,244.1 L280.1,244.1 C283.8,244.1 286.8,244.3 290.1,242.3 C293.6,240 294.4,236.4 294.4,232.3 C294.4,224.8 290.4,221.1 282.8,221.1 C281.7,221.1 278.5,220.9 277.8,221.5 C277.2,222 277.3,224.4 277.3,225 L277.3,244.1 L277.4,244.1 Z M277.4,258.1 C277.4,261 277.4,266.2 278.4,268.7 C279.8,272.3 284.1,272.2 287.3,272.2 C295.6,272.2 299.3,267.3 299.3,259.3 C299.3,254.5 297.6,250.4 293.2,248.1 C289.3,246.1 284.3,246.3 280,246.3 L277.4,246.3 L277.4,258.1 L277.4,258.1 Z" id="Shape" fill="#000000"></path>
            <path d="M336.9,234.2 L349.9,265.9 C351.9,270.8 352.3,273 357.2,273 L357.2,274.7 C354,274.6 350.9,274.5 347.7,274.5 C344.6,274.5 341.5,274.6 338.3,274.7 L338.3,273 C341.3,273 343.9,273 343.9,271.1 C343.9,270.1 343.6,269.2 343.2,268.2 L340.2,260.5 L325.2,260.5 L324.1,263.5 C323.3,265.7 322.2,268.3 322.2,270.2 C322.2,273.1 325.5,273.1 327.7,273.1 L327.7,274.8 C325.2,274.7 322.8,274.6 320.3,274.6 C317.9,274.6 315.4,274.7 313,274.8 L313,273.1 C319.3,273.1 320.3,266.4 323.6,259 L334.4,234.4 L336.9,234.4 L336.9,234.2 Z M339.2,258.1 L333,242.6 L326.4,258.1 L339.2,258.1 Z" id="Shape" fill="#000000"></path>
            <path d="M401.5,275.5 L399,275.5 L371.5,242.8 L371.3,242.8 L371.3,265.1 C371.3,271.9 372.7,272.9 378.3,272.9 L378.3,274.6 C375.6,274.5 373,274.4 369.8,274.4 C367.1,274.4 364.5,274.5 361.8,274.6 L361.8,272.9 C367.4,272.9 368.8,272 368.8,265.1 L368.8,239.6 C367.2,237.6 364.5,236.8 362,236.7 L362,235 C363.4,235.1 365.1,235.2 367.2,235.2 C369.3,235.2 371.7,235.1 374,235 L398.8,265.1 L399,265.1 L399,244.4 C399,237.6 397.6,236.6 392,236.6 L392,234.9 C394.7,235 397.3,235.1 400,235.1 C403.2,235.1 405.8,235 408.6,234.9 L408.6,236.6 C402.9,236.6 401.5,237.5 401.5,244.4 L401.5,275.5 Z" id="Path" fill="#000000"></path>
            <path d="M452.9,274.6 L451.9,274.6 L450.4,271.1 C446.9,273.3 442.1,275.5 435.8,275.5 C422,275.5 414.9,268.1 414.9,254.8 C414.9,242.3 423.8,234.1 436.8,234.1 C442,234.1 446,235.5 449.6,237.2 L450.7,235.2 L451.5,235.2 L452.4,247 L451,247 C449.3,240.2 444.6,235.8 437.6,235.8 C426.7,235.8 423.4,245.6 423.4,254.9 C423.4,264.3 426.4,273.8 437.3,273.8 C445.8,273.8 450,266.4 451.5,260.6 L452.8,260.6 L452.8,274.6 L452.9,274.6 Z" id="Path" fill="#000000"></path>
            <path d="M483.2,234.2 L496.2,265.9 C498.2,270.8 498.6,273 503.5,273 L503.5,274.7 C500.3,274.6 497.2,274.5 494,274.5 C490.9,274.5 487.8,274.6 484.6,274.7 L484.6,273 C487.6,273 490.2,273 490.2,271.1 C490.2,270.1 489.9,269.2 489.5,268.2 L486.5,260.5 L471.5,260.5 L470.4,263.5 C469.6,265.7 468.5,268.3 468.5,270.2 C468.5,273.1 471.8,273.1 474,273.1 L474,274.8 C471.5,274.7 469.1,274.6 466.7,274.6 C464.2,274.6 461.8,274.7 459.3,274.8 L459.3,273.1 C465.6,273.1 466.7,266.4 469.9,259 L480.7,234.4 L483.2,234.4 L483.2,234.2 Z M485.6,258.1 L479.4,242.6 L472.8,258.1 L485.6,258.1 Z" id="Shape" fill="#000000"></path>
            <path d="M515.4,244.8 C515.4,238.6 515.2,236.8 508.8,236.8 L508.8,235.1 C512.3,235.2 515.7,235.3 519.2,235.3 C522.7,235.3 526.4,235.1 529.9,235.1 C538.7,235.1 545.9,237.6 545.9,245.1 C545.9,250.4 541.3,254.6 533.8,255.1 L544.7,268 C547.1,270.9 548.9,272.9 552.8,272.9 L552.8,274.6 C550.9,274.5 548.8,274.4 546.9,274.4 C544.9,274.4 542.9,274.5 540.9,274.6 L528.1,259 C526.3,256.9 525.9,256.9 522.9,256.9 L522.9,264.9 C522.9,271.1 523.1,272.9 529.5,272.9 L529.5,274.6 C526,274.5 522.6,274.4 519.1,274.4 C515.6,274.4 512.2,274.5 508.7,274.6 L508.7,272.9 C515.1,272.9 515.3,271 515.3,264.9 L515.3,244.8 L515.4,244.8 Z M523,254.9 L526,254.9 C533.7,254.9 537.3,251.4 537.3,246 C537.3,240 533.7,236.8 527.3,236.8 C525.3,236.8 523,236.8 523,238.5 L523,254.9 Z" id="Shape" fill="#000000"></path>
            <path d="M562.4,244.8 C562.4,238.6 562.2,236.8 555.8,236.8 L555.8,235.1 C559,235.2 562.2,235.3 565.4,235.3 C569.5,235.3 574,235.1 577.4,235.1 C591.1,235.1 600.4,242.6 600.4,255 C600.4,267.4 591.1,274.6 577.4,274.6 C573.7,274.6 570.1,274.4 566.2,274.4 C562.7,274.4 559.3,274.5 555.8,274.6 L555.8,272.9 C562.2,272.9 562.4,271 562.4,264.9 L562.4,244.8 Z M570,267.4 C570,272 573.3,273 577.4,273 C588.8,273 591.7,266.5 591.7,256.2 C591.7,245.3 587.6,236.9 575.6,236.9 C570.3,236.9 570,236.9 570,238.9 L570,267.4 L570,267.4 Z" id="Shape" fill="#000000"></path>
            <path d="M267.9,177.3 L267.9,150 C210.8,193.1 150.3,161 158.5,107.9 L149.8,121.4 C106.2,185.5 45.6,233.5 0.4,214 L2.8,219.9 C140.9,281.7 217.8,184.3 225.9,175.5 C227.6,173.6 230.5,173.6 230.5,173.6 C238.3,172.6 245.2,170.6 249.2,169.5 C254.5,168 256.3,166.2 260.8,170.7 L267.9,177.3 Z" id="Path" fill="#212D65"></path>
            <path d="M268.1,72.8 L268,102.6 C251.1,85.4 205.3,74.3 186.8,105 C174.6,125.2 187.2,147.2 204.1,153.3 C223.2,160.3 242.3,154.6 259.2,137 C280.2,115.2 311.5,60.8 367.8,43.5 C403.6,32.5 459.7,28.7 522.5,55.1 L521.5,49.6 C406,-26.1 239,-15 174,86.4 C179.3,80.8 186.9,77 194,74.5 C203,71.4 211.1,70.1 220.5,71 C226,71.5 234.2,73.4 239.9,75.9 C251.4,80.9 254,83.5 258.4,80.5 L268.1,72.8 Z" id="Path" fill="#212D65"></path>
            <path d="M403.7,125.2 C395.7,114.3 376.2,114.3 376.2,114.3 C380.6,113.5 397.6,107.4 396.1,92.9 C394.7,79.8 380.7,73.3 362.4,72.9 L316.9,73.1 C316.9,73.1 316.9,135.3 316.9,151.6 C316.9,166.9 309.6,165.2 293.3,165.4 L293.3,169.4 L360.9,169.4 C360.9,169.4 361.5,169.3 363.4,169.3 C365.7,169.3 370,168.7 377.2,167.9 C395.4,166 420.6,148.2 403.7,125.2 M369.7,162.9 C355.8,167.6 343.6,160.2 339.8,156.1 L339.8,84.5 C339.8,84.5 347.7,77.1 357,76.9 C365.3,76.7 376.2,80.9 378.3,92.8 C379.8,101.4 374.1,114.4 357.6,114.9 C357.3,114.9 358.3,116.7 358.3,116.7 C368.8,116.1 376.2,118 381.3,123.3 C394.9,137.6 384.3,157.9 369.7,162.9" id="Shape" fill="#000000"></path>
            <path d="M131.1,73.5 L71.4,73.5 L71.4,77.9 C81.5,77.4 88.9,79.3 89,86 C89.1,90.7 89,152.6 89,152.6 C89.7,166.8 80.2,165.3 69.8,166.3 L69.7,170.2 L111.6,170.1 L111.7,86 C112.5,78.8 120.8,77.6 131.1,77.6 L131.1,73.5 Z" id="Path" fill="#000000"></path>
            <path d="M482.2,73.3 L456.7,73.3 L455.9,76 C459.2,76.3 463.4,77.6 461.8,81 C460.3,84.2 431.1,143 428.2,147.8 C424.9,153.3 419.3,167.2 403.8,166.1 L403.8,169.7 L432.5,169.7 C432.5,169.7 432.2,160.5 442.6,138.2 C451.1,119.9 467.3,87.2 467.3,87.2 L485.6,130 L454.3,130 L457.5,135.9 L488.4,135.9 C494.6,149.6 499.1,158.1 496.6,169.7 L537.2,169.7 L537.2,165.8 C526.1,165.1 520,155.9 515.7,147 C511.6,139 482.2,73.3 482.2,73.3" id="Path" fill="#000000"></path>
        </g>
    </g>
</svg>