<?xml version="1.0" encoding="utf-8"?>
<!-- Generator: Adobe Illustrator 19.2.1, SVG Export Plug-In . SVG Version: 6.00 Build 0)  -->
<svg version="1.1" id="layer" xmlns="http://www.w3.org/2000/svg" xmlns:xlink="http://www.w3.org/1999/xlink" x="0px" y="0px"
	 viewBox="0 0 652 652" style="enable-background:new 0 0 652 652;" xml:space="preserve">
<style type="text/css">
	.st0{fill:#212D65;}
</style>
<g>
	<g>
		<g>
			<path d="M288.7,419.8c0-2.7,0-9-0.8-11.2c-0.9-3-4.5-2.9-7.2-2.9v-1.9c4,0.1,8,0.3,12.1,0.3c3.4-0.1,6.7-0.2,10-0.3
				c8.9-0.3,20.8,2,20.8,13.3c0,7.7-6.3,11-12.7,12.9v0.2c4.7,0.4,9,1.2,12.3,3.5c4,2.7,6.5,6.8,6.5,11.7c0,5.6-3.5,9.7-8.2,12.2
				c-4.6,2.4-10.6,2.2-15.5,2.2c-3.7-0.1-7.3-0.3-11.1-0.3c-4.7,0.1-9.5,0.3-14.3,0.3v-1.9c2.7,0,6.2,0.1,7.2-2.9
				c0.8-2.3,0.8-8.5,0.8-11.2V419.8z M297.4,429.1h2.7c3.7,0,6.7,0.2,10-1.8c3.5-2.3,4.3-5.9,4.3-10c0-7.5-4-11.2-11.6-11.2
				c-1.1,0-4.3-0.2-5,0.4c-0.6,0.5-0.5,2.9-0.5,3.5V429.1z M297.4,443.1c0,2.9,0,8.1,1,10.6c1.4,3.6,5.7,3.5,8.9,3.5
				c8.3,0,12-4.9,12-12.9c0-4.8-1.7-8.9-6.1-11.2c-3.9-2-8.9-1.8-13.2-1.8h-2.6V443.1z"/>
		</g>
	</g>
</g>
<g>
	<g>
		<g>
			<path d="M356.9,419.2l13,31.7c2,4.9,2.4,7.1,7.3,7.1v1.7c-3.2-0.1-6.3-0.2-9.5-0.2c-3.1,0-6.2,0.1-9.4,0.2v-1.7
				c3,0,5.6,0,5.6-1.9c0-1-0.3-1.9-0.7-2.9l-3-7.7h-15l-1.1,3c-0.8,2.2-1.9,4.8-1.9,6.7c0,2.9,3.3,2.9,5.5,2.9v1.7
				c-2.5-0.1-4.9-0.2-7.4-0.2c-2.4,0-4.9,0.1-7.3,0.2v-1.7c6.3,0,7.3-6.7,10.6-14.1l10.8-24.6H356.9z M359.2,443.1l-6.2-15.5
				l-6.6,15.5H359.2z"/>
		</g>
	</g>
</g>
<g>
	<g>
		<g>
			<path d="M421.5,460.5H419l-27.5-32.7h-0.2v22.3c0,6.8,1.4,7.8,7,7.8v1.7c-2.7-0.1-5.3-0.2-8.5-0.2c-2.7,0-5.3,0.1-8,0.2v-1.7
				c5.6,0,7-0.9,7-7.8v-25.5c-1.6-2-4.3-2.8-6.8-2.9v-1.7c1.4,0.1,3.1,0.2,5.2,0.2c2.1,0,4.5-0.1,6.8-0.2l24.8,30.1h0.2v-20.7
				c0-6.8-1.4-7.8-7-7.8v-1.7c2.7,0.1,5.3,0.2,8,0.2c3.2,0,5.8-0.1,8.6-0.2v1.7c-5.7,0-7.1,0.9-7.1,7.8V460.5z"/>
		</g>
	</g>
</g>
<g>
	<g>
		<g>
			<path d="M472.9,459.6h-1l-1.5-3.5c-3.5,2.2-8.3,4.4-14.6,4.4c-13.8,0-20.9-7.4-20.9-20.7c0-12.5,8.9-20.7,21.9-20.7
				c5.2,0,9.2,1.4,12.8,3.1l1.1-2h0.8l0.9,11.8h-1.4c-1.7-6.8-6.4-11.2-13.4-11.2c-10.9,0-14.2,9.8-14.2,19.1
				c0,9.4,3,18.9,13.9,18.9c8.5,0,12.7-7.4,14.2-13.2h1.3V459.6z"/>
		</g>
	</g>
</g>
<g>
	<g>
		<g>
			<path d="M503.2,419.2l13,31.7c2,4.9,2.4,7.1,7.3,7.1v1.7c-3.2-0.1-6.3-0.2-9.5-0.2c-3.1,0-6.2,0.1-9.4,0.2v-1.7
				c3,0,5.6,0,5.6-1.9c0-1-0.3-1.9-0.7-2.9l-3-7.7h-15l-1.1,3c-0.8,2.2-1.9,4.8-1.9,6.7c0,2.9,3.3,2.9,5.5,2.9v1.7
				c-2.5-0.1-4.9-0.2-7.3-0.2c-2.5,0-4.9,0.1-7.4,0.2v-1.7c6.3,0,7.4-6.7,10.6-14.1l10.8-24.6H503.2z M505.6,443.1l-6.2-15.5
				l-6.6,15.5H505.6z"/>
		</g>
	</g>
</g>
<g>
	<g>
		<g>
			<path d="M535.4,429.8c0-6.2-0.2-8-6.6-8v-1.7c3.5,0.1,6.9,0.2,10.4,0.2c3.5,0,7.2-0.2,10.7-0.2c8.8,0,16,2.5,16,10
				c0,5.3-4.6,9.5-12.1,10l10.9,12.9c2.4,2.9,4.2,4.9,8.1,4.9v1.7c-1.9-0.1-4-0.2-5.9-0.2c-2,0-4,0.1-6,0.2L548.1,444
				c-1.8-2.1-2.2-2.1-5.2-2.1v8c0,6.2,0.2,8,6.6,8v1.7c-3.5-0.1-6.9-0.2-10.4-0.2c-3.5,0-6.9,0.1-10.4,0.2v-1.7c6.4,0,6.6-1.9,6.6-8
				V429.8z M543,439.9h3c7.7,0,11.3-3.5,11.3-8.9c0-6-3.6-9.2-10-9.2c-2,0-4.3,0-4.3,1.7V439.9z"/>
		</g>
	</g>
</g>
<g>
	<g>
		<g>
			<path d="M582.4,429.8c0-6.2-0.2-8-6.6-8v-1.7c3.2,0.1,6.4,0.2,9.6,0.2c4.1,0,8.6-0.2,12-0.2c13.7,0,23,7.5,23,19.9
				c0,12.4-9.3,19.6-23,19.6c-3.7,0-7.3-0.2-11.2-0.2c-3.5,0-6.9,0.1-10.4,0.2v-1.7c6.4,0,6.6-1.9,6.6-8V429.8z M590,452.4
				c0,4.6,3.3,5.6,7.4,5.6c11.4,0,14.3-6.5,14.3-16.8c0-10.9-4.1-19.3-16.1-19.3c-5.3,0-5.6,0-5.6,2V452.4z"/>
		</g>
	</g>
</g>
<g>
	<g>
		<g>
			<path class="st0" d="M287.9,362.3V335c-57.1,43.1-117.6,11-109.4-42.1l-8.7,13.5C126.2,370.5,65.6,418.5,20.4,399l2.4,5.9
				c138.1,61.8,215-35.6,223.1-44.4c1.7-1.9,4.6-1.9,4.6-1.9c7.8-1,14.7-3,18.7-4.1c5.3-1.5,7.1-3.3,11.6,1.2L287.9,362.3z"/>
		</g>
	</g>
</g>
<g>
	<g>
		<g>
			<path class="st0" d="M288.1,257.8l-0.1,29.8c-16.9-17.2-62.7-28.3-81.2,2.4c-12.2,20.2,0.4,42.2,17.3,48.3
				c19.1,7,38.2,1.3,55.1-16.3c21-21.8,52.3-76.2,108.6-93.5c35.8-11,91.9-14.8,154.7,11.6l-1-5.5C426,158.9,259,170,194,271.4
				c5.3-5.6,12.9-9.4,20-11.9c9-3.1,17.1-4.4,26.5-3.5c5.5,0.5,13.7,2.4,19.4,4.9c11.5,5,14.1,7.6,18.5,4.6L288.1,257.8z"/>
		</g>
	</g>
</g>
<g>
	<g>
		<g>
			<path d="M423.7,310.2c-8-10.9-27.5-10.9-27.5-10.9c4.4-0.8,21.4-6.9,19.9-21.4c-1.4-13.1-15.4-19.6-33.7-20l-45.5,0.2
				c0,0,0,62.2,0,78.5c0,15.3-7.3,13.6-23.6,13.8v4h67.6c0,0,0.6-0.1,2.5-0.1c2.3,0,6.6-0.6,13.8-1.4
				C415.4,351,440.6,333.2,423.7,310.2 M389.7,347.9c-13.9,4.7-26.1-2.7-29.9-6.8v-71.6c0,0,7.9-7.4,17.2-7.6
				c8.3-0.2,19.2,4,21.3,15.9c1.5,8.6-4.2,21.6-20.7,22.1c-0.3,0,0.7,1.8,0.7,1.8c10.5-0.6,17.9,1.3,23,6.6
				C414.9,322.6,404.3,342.9,389.7,347.9"/>
		</g>
	</g>
</g>
<g>
	<g>
		<g>
			<path d="M151.1,258.5H91.4v4.4c10.1-0.5,17.5,1.4,17.6,8.1c0.1,4.7,0,66.6,0,66.6c0.7,14.2-8.8,12.7-19.2,13.7l-0.1,3.9l41.9-0.1
				l0.1-84.1c0.8-7.2,9.1-8.4,19.4-8.4V258.5z"/>
		</g>
	</g>
</g>
<g>
	<g>
		<g>
			<path d="M502.2,258.3h-25.5l-0.8,2.7c3.3,0.3,7.5,1.6,5.9,5c-1.5,3.2-30.7,62-33.6,66.8c-3.3,5.5-8.9,19.4-24.4,18.3l0,3.6
				l28.7,0c0,0-0.3-9.2,10.1-31.5c8.5-18.3,24.7-51,24.7-51l18.3,42.8h-31.3l3.2,5.9h30.9c6.2,13.7,10.7,22.2,8.2,33.8h40.6v-3.9
				c-11.1-0.7-17.2-9.9-21.5-18.8C531.6,324,502.2,258.3,502.2,258.3"/>
		</g>
	</g>
</g>
</svg>
