<?xml version="1.0" encoding="UTF-8"?>
<svg width="784px" height="501px" viewBox="0 0 784 501" version="1.1" xmlns="http://www.w3.org/2000/svg" xmlns:xlink="http://www.w3.org/1999/xlink">
    <!-- Generator: Sketch 64 (93537) - https://sketch.com -->
    <title>img-partner-4</title>
    <desc>Created with Sketch.</desc>
    <g id="Page-1" stroke="none" stroke-width="1" fill="none" fill-rule="evenodd">
        <g id="img-partner-4" fill-rule="nonzero">
            <path d="M377.9,304.9 C277.5,304.9 177.5,304.9 77.1,304.9 C75.8,304.9 75,304.9 73.7,304.9 C73.3,304.9 73.3,304.9 73.3,304.5 L73.7,304.1 C80.9,296.9 87.7,289.2 95.4,282.4 C107.7,271.3 118.8,259 130.7,247.5 C144.7,234.7 157.5,220.2 171.5,207.5 C184.3,195.6 196.2,182.8 208.9,170.9 C222.1,158.5 234.4,145.3 247.6,133 C249.7,130.9 249.7,131.3 251.9,133 C254.5,135.1 257.4,137.3 260,139.4 C261.7,140.7 263.4,142 265.1,143.2 C270.2,147 275.7,151.3 280.8,155.1 C285.1,158.5 289.3,161.1 293.1,164.9 C295.2,167 298.6,168.3 300.8,170.4 C303.4,173 306.3,174.7 308.9,176.8 C311.5,178.9 314.4,181.1 317.4,183.2 C317.8,183.6 317.8,184.1 317.8,184.5 C318.2,187.1 316.9,189.2 316.1,191.3 C314.4,197.3 311.8,202.8 310.1,208.8 C309.2,212.6 308,216.5 306.7,220.3 C305.8,224.1 304.1,227.5 303.3,230.9 C302,235.2 300.3,239.4 299.5,243.3 C298.6,247.6 296.9,251.4 295.7,255.2 C294.4,260.7 292.3,266.3 290.6,271.4 C289.3,276.9 287.2,282 285.5,287.2 C285.5,287.6 285.5,288.1 285.1,288.1 C285.1,288.5 285.1,288.5 285.1,289 C285.5,289 285.5,289 286,289 C287.7,288.1 289,286.9 290.7,286 C295.8,282.6 301.3,279.2 306.4,275.4 C311.5,271.1 317.5,267.7 323,263.9 C327.7,260.5 332.8,257.5 337.5,254.1 C343,250.3 349,246.4 354.5,242.2 C358.3,239.2 362.6,236.7 366.8,234.1 C369.8,232 372.8,230.3 375.3,228.1 C375.7,227.7 376.2,227.7 377,227.2 C377.4,226.8 377.9,226.3 378.7,227.2 C382.5,230.2 386.8,232.7 391,235.7 C399.5,241.2 408,246.8 416.1,252.7 C421.6,257 427.6,260.4 433.1,264.6 C436.9,267.6 440.8,269.7 444.6,272.7 C446.7,274.4 448.9,275.7 451,277 C453.1,278.3 455.7,280 457.8,281.3 C459.9,283 462.1,284.7 464.2,286 C465.5,286.9 467.2,288.1 468.9,289 L469.8,289 C469.8,288.1 469.8,287.3 469.8,286.9 C467.2,280.5 465.5,274.1 463.8,267.3 C462.1,261.3 459.5,255.4 457.8,249.4 C456.5,243.9 454,238.8 452.7,233.2 C452.3,231.1 451,228.9 450.6,226.4 C448.9,220.4 446.8,214.5 445.1,208.5 C443.4,203 441.7,197.9 440,192.7 C439.1,190.1 438.7,187.6 437.4,185 C437.4,184.6 437.4,184.1 437.8,183.7 C439.1,182.8 440.4,181.6 441.6,180.7 C445.9,177.3 450.1,174.3 453.9,170.9 C457.7,167.5 462.4,164.9 466.2,161.5 C469.6,158.5 473.4,156.4 476.8,153.8 C478.5,152.5 479.8,151.2 481.5,150 C486.6,146.2 491.7,141.9 497.2,138.1 C499.8,136.4 502.3,134.3 504.9,132.1 C505.8,131.2 506.2,131.2 507,132.1 C509.6,134.7 512.1,137.2 514.7,140.2 C517.7,143.2 520.2,146.2 523.2,148.7 C537.2,161.1 549.6,175.1 563.2,187.9 C576,199.8 587.5,212.6 600.2,224.1 C613.4,236 625.3,249.7 638.5,261.6 C651.7,273.5 663.6,286.7 676.4,299.1 C678.5,300.8 680.7,302.9 682.8,304.6 C682.8,304.6 683.2,305 683.2,305.5 C682.8,305.5 682.8,305.5 682.3,305.5 C681.4,305.5 680.2,305.5 679.3,305.5 C578.7,304.9 478.3,304.9 377.9,304.9 Z" id="Path" fill-opacity="0.8" fill="#7996A2"></path>
            <path d="M318.8,70.3 C329.9,70.3 341.4,70.3 352.4,70.3 C353.7,70.3 355,70.3 354.5,68.6 C356.6,64.3 357.5,59.7 359.2,55.4 C360.9,51.1 362.2,46.5 363.9,42.2 C365.6,37.9 366.9,33.3 368.6,29 C369.9,24.7 371.2,20.9 372.4,16.6 C374.1,11.5 375.4,6.4 377.9,1.7 C377.9,1.3 377.9,1.3 378.3,0.8 C378.3,1.2 378.7,1.2 378.7,1.7 C380.8,8.5 383,14.9 385.1,21.7 C386,24.7 386.8,27.7 388.1,30.6 C389.4,34 390.7,37.8 391.9,41.2 C393.2,45.9 394.9,50.1 396.6,54.8 C397.9,59.1 399.6,63.3 400.9,68 C401.3,69.3 401.8,69.7 403,69.7 C403.9,69.7 404.7,69.7 405.1,69.7 C426.8,69.7 448.1,69.7 469.8,69.7 C470.7,69.7 471.1,69.7 471.9,69.7 C472.3,69.7 472.8,69.7 472.8,70.1 C472.8,70.5 472.4,70.5 472.4,71 C470.7,72.7 469,74.4 466.9,75.7 C463.5,77.8 460.9,80.4 458,82.5 C452.9,85.9 448.2,90.2 443.1,93.6 C440.1,95.7 437.6,97.9 435,100 C429.9,103.8 425.2,107.7 420.1,111.1 C419.2,111.5 418.4,112.8 417.5,113.7 C416.6,114.6 415.8,115 417.1,116.3 C417.5,120.6 419.7,124.4 420.9,128.7 C421.8,132.1 423,135.5 424.3,138.9 C425.2,142.3 426.4,145.3 427.3,148.7 C428.6,153 430.3,156.8 431.1,161.1 C432.4,166.6 434.5,171.7 435.8,177.3 C436.2,178.6 436.2,180.3 437.1,181.1 C437.1,181.1 437.1,182 436.7,182 L435.8,182 C431.5,179 427.3,176 423,173.1 C419.6,170.5 416.2,168.4 412.8,166.3 C410.2,164.6 407.7,162.9 405.1,161.2 C402.5,159.5 400,157.8 397.4,156.1 C393.6,153.1 389.3,150.6 385.5,148 C383.4,146.7 381.2,145.4 379.1,143.7 C377.8,142.4 377,142.8 376.1,143.7 C373.1,145.4 370.6,147.5 367.6,149.7 C359.9,154.8 352.3,159.5 345,165 C339.5,169.3 333.5,172.2 328.4,176.5 C325.8,178.6 322.9,180.3 319.9,182 C319.5,182.4 319,182.4 318.6,182.4 C318.6,182 319,181.5 319,181.1 C319.9,178.5 320.3,175.6 321.6,173 C322.5,170.4 322.9,167.9 324.2,165.3 C325.1,162.7 325.9,160.2 326.8,157.6 C327.7,154.6 328.9,151.6 329.8,148.7 C331.5,142.7 333.2,137.2 335.3,131.2 C337,126.1 338.3,120.6 340,115.4 C340.4,114.5 340.4,114.5 339.6,114.1 C336.2,111.5 332.8,109 329.4,106 C326,103 322.2,101.3 319.2,98.3 C317.1,97.9 316.2,95.3 314.1,94.9 C309,90.6 303.5,86.4 297.9,82.5 C293.6,79.5 289.8,76.1 286,72.7 C285.6,72.3 285.6,72.3 285.1,72.3 C284.2,71.4 283.8,71 283,70.2 C283.9,70.2 284.7,70.2 285.6,70.2 C296.2,70.3 307.3,70.3 318.8,70.3 Z" id="Path" fill-opacity="0.8" fill="#70C662"></path>
            <path d="M267.7,412.7 C267.7,386.3 267.7,360.3 267.7,333.9 C267.7,333 267.7,331.8 267.7,330.9 C267.7,330.5 268.1,330.5 268.6,330 L269,330 C273.3,330 277.1,330 281.3,330 C281.3,333.8 281.7,337.7 281.7,341.9 C281.7,358.9 281.7,375.5 281.7,392.6 C281.7,393 281.7,393.9 282.1,394.3 C282.5,393.9 283,393.9 283.4,393 C285.1,390 288.1,387.9 290.2,385.3 C293.6,381.5 298.3,379.8 303,378.1 C304.3,377.7 306,377.7 307.7,377.2 C310.3,376.8 312.8,376.8 315.4,377.2 C317.5,378.1 320.1,377.6 322.2,378.5 C323.9,379.4 326,379.8 328.2,381.1 C332.5,383.2 335.9,386.6 338.4,391.3 C339.3,393 340.1,394.7 340.5,396 C341.4,397.7 340.9,399.4 342.2,400.7 L342.2,401.1 C342.6,404.5 343.1,407.5 343.1,410.9 C343.1,438.2 343.1,465.4 343.1,492.7 C343.1,493.6 343.1,494.4 343.1,495.3 C343.1,496.2 342.7,496.6 342.2,496.6 C338.8,496.6 335,496.6 331.6,496.6 C330.3,496.6 329.5,495.7 329.5,494.5 C329.5,493.6 329.5,492.8 329.5,491.9 C329.5,465.1 329.5,437.8 329.5,411 C329.5,404.6 326.9,399.5 323.5,394.8 C321.8,392.7 319.2,391.8 316.7,390.5 C312.9,388.4 308.2,388.4 303.5,389.2 C300.1,390.1 296.7,390.9 294.1,393 C292,394.3 290.3,396 289,398.1 C286.9,401.1 285.6,404.5 284.3,407.5 C283.9,408.8 284.7,410.9 283.4,412.2 C283.8,416 282.5,419.4 282.5,422.8 C282.5,445.8 282.5,469.2 282.5,492.2 C282.5,493.1 282.5,493.9 282.5,494.8 C282.5,495.7 282.5,496.1 281.2,496.1 C277.8,496.1 274.4,496.1 271,496.1 C269.3,496.1 268.9,495.7 268.9,494 C268.9,493.1 268.9,492.3 268.9,491.9 C267.7,465.9 267.7,439.5 267.7,412.7 Z" id="Path" fill-opacity="0.8" fill="#7996A2"></path>
            <path d="M597.9,442.9 C597.9,455.3 597.9,467.6 597.9,480 C597.9,483.8 599.2,488.1 598.8,491.9 C598.8,492.3 599.2,492.8 599.7,493.6 C599.7,494.5 600.1,495.7 599.7,496.6 C599.3,497 598,497 597.1,497 C593.3,497 589.9,497 586,496.6 C586,493.2 586,489.4 586,486 C586,484.7 586,483.9 586,482.6 C585.1,483.5 584.3,483.9 583.4,484.7 C582.1,486 580.8,487.7 579.6,489.4 C576.6,492.4 568.5,497.1 563.4,497.9 C559.1,498.8 555.3,499.6 551.1,499.2 C547.7,498.8 544.3,498.8 540.9,497.5 C537.9,496.2 534.5,494.9 532,493.2 C529.4,491.1 526.9,488.5 525.6,485.5 C524.7,483.8 523.9,481.7 523,480 C522.1,478.3 522.6,475.7 521.3,474 L521.3,473.6 C521.7,469.8 520,466.4 520.4,463 C521.3,457.5 521.3,451.9 524.2,446.8 C527.2,441.3 531.4,436.6 537.4,433.6 C539.1,432.7 541.2,431.9 543.4,431 C545.5,430.1 547.7,430.1 549.4,428.9 C551.1,428 553.2,428.5 555.4,428 C557.1,427.6 558.4,427.6 560.1,427.1 C561.8,427.1 563.5,427.5 565.2,427.1 C567.8,426.2 570.7,426.7 573.3,426.2 C575.9,426.2 578.4,426.6 581,425.3 C582.3,424.9 583.6,425.3 585.3,424.9 C585.3,423.2 585.7,421.5 585.7,420.2 C585.7,416.4 585.7,413 585.7,409.1 C585.7,404.4 584,399.7 581.9,395.9 C579.8,392.5 576.8,390.4 573,389.1 C568.3,387.4 563.6,387 559,387.8 C554.3,388.7 549.6,389.5 546.2,392.9 C542.4,396.3 539.8,400.6 539.8,406.1 C539.8,408.2 539.8,407.8 538.1,407.8 C534.3,407.8 530.4,407.8 526.6,407.8 C525.7,407.8 525.3,407.4 525.3,406.5 C525.3,403.5 526.2,400.5 527,398 C529.6,390.8 534.2,385.6 541,382.2 C544.8,380.5 548.7,379.2 552.5,377.9 C555.1,377 558,377 561,377 C564,377 567,376.6 569.9,377 C572.5,377.9 575.4,377 578,378.3 C580.1,379.2 582.7,380 585.2,380.9 C589,382.6 592,385.2 594.6,388.6 C596.7,391.2 598,394.6 598.9,397.5 C599.8,399.6 599.8,402.2 599.8,404.3 C597.9,417.8 597.9,430.1 597.9,442.9 Z M584.3,451 C584.3,447.2 584.3,442.9 584.3,439.1 C584.3,437 584.3,437 582.2,437 C577.9,437.4 574.1,436.6 569.9,437.4 C566.9,438.3 563.5,437.8 560.1,438.3 C554.6,438.7 549.5,440.4 544.8,443 C538,446.8 535.4,452.8 534.2,460 C533.8,463.4 534.2,466.8 534.6,470.2 C535.5,475.3 537.6,479.1 541,483 C544.8,486.8 549.1,487.7 554.2,488.5 C556.8,488.9 559.3,488.5 561.4,487.6 C563.5,487.2 566.1,486.3 568.2,485 C570.8,483.3 574.2,481.6 575.9,479 C577.6,476.9 579.3,475.2 580.6,472.6 C582.3,469.2 584,465.4 584,461.5 C583.8,458.2 584.3,454.4 584.3,451 Z" id="Shape" fill-opacity="0.8" fill="#7996A2"></path>
            <path d="M119.6,440.8 C109.8,440.8 100,440.8 90.2,440.8 C89.3,440.8 88.5,440.8 88.1,440.8 C86.8,440.8 86,441.7 86,442.9 C86,446.7 85.6,450.6 86,454 C86.4,456.6 86,459.1 86.9,461.7 C88.2,466.8 88.6,472.3 92,476.6 C92.9,480 95.4,481.7 98,483.8 C100.6,485.9 103.5,486.8 106.5,488.1 C109.5,489 112.5,489 115.4,489 C121.8,488.6 127.7,486.4 132.4,481.8 C135.4,478.8 136.7,475.4 137.9,471.2 C138.8,468.6 138.8,466.1 138.8,463.5 C138.8,462.6 139.2,462.2 140.1,462.2 C144.4,462.2 148.2,462.2 152.4,462.2 C153.3,462.2 153.7,462.6 153.3,463.5 C152.9,467.8 152.4,472.4 150.7,476.7 C148.6,482.2 146,487.8 141.3,491.6 C137.9,494.6 133.6,496.7 129.4,497.6 C126,498.5 123,499.7 119.6,499.3 C116.2,501 112.8,499.7 109.4,500.2 C107.7,500.2 106,499.3 104.3,499.3 C102.6,499.3 100.9,498.9 99.2,498.4 C97.5,498 95.8,497.5 94.5,496.7 C92.8,495.8 91.5,495.4 90.2,494.6 C87.2,492.9 84.2,491.2 82.1,487.8 C80.4,485.7 78.7,483.5 77.4,481 C75.7,476.7 74.4,472.9 73.6,468.2 C72.7,463.9 73.2,459.7 73.2,455.4 C73.2,443.9 73.2,432.8 73.2,421.3 C73.2,419.6 72.8,417.9 73.6,416.6 C74.5,414.9 73.6,413.2 74,411.9 C74.9,410.6 74,408.5 75.3,407.6 C75.3,404.2 77,401.2 78.3,398.7 C80.9,394 83.8,389.3 88.1,386.3 C92.8,383.3 95.3,382 100.9,380.3 C103.5,379.4 106,379.4 108.6,379 C111.6,378.6 114.1,379 117.1,379 C118.8,379 119.7,380.3 121.4,379.9 C122.7,379.5 124,380.3 125.2,380.8 C126.5,381.2 128.2,381.2 129.5,381.7 C132.9,383.4 136.7,384.7 139.7,387.7 C142.3,390.3 144.8,393.2 146.5,396.2 C147.8,398.3 148.2,400.9 149.1,403 C149.5,404.7 150,406.4 150.4,408.1 C150.8,409.8 150,411.9 151.3,413.6 L151.3,414 C150.9,418.7 152.2,422.9 152.2,427.6 C152.2,432.3 152.2,436.5 152.2,441.2 C152.2,442.1 152.2,442.5 151.3,442.5 C150.4,442.5 149.6,442.5 148.7,442.5 C139.2,440.8 129.4,440.8 119.6,440.8 Z M112,430.1 C114.1,430.1 116.7,430.1 118.8,430.1 C124.8,430.1 131.1,430.1 137.1,430.1 C138,430.1 138.4,430.1 138.4,428.8 C138.4,426.7 138.4,424.1 138.4,422 C138.4,419.9 138.8,417.7 138,415.6 C137.1,413.5 138.4,410.9 136.7,409.2 C136.7,405.4 135,402 132.9,398.6 C131.6,396.5 130.3,394.8 128.6,393.1 C125.2,390.5 120.9,389.3 116.7,388.8 C111.6,387.9 106.5,388.4 101.8,390.1 C97.1,391.8 93.3,394.8 90.7,399.5 C88.1,404.2 87.3,409.3 86.4,414 C86,415.3 86.4,417 86.4,418.7 C86.4,420 86.8,421.7 86,423 C85.6,424.3 85.6,426 85.6,427.3 C85.6,429.4 85.6,429.4 87.7,429.4 C96.2,430.1 104.3,430.1 112,430.1 Z" id="Shape" fill-opacity="0.8" fill="#7996A2"></path>
            <path d="M691.9,462.5 C694,462.5 696.2,462.5 698.3,462.5 C698.3,464.6 698.3,466.8 698.7,468.9 C699.1,471.5 700,474 700,476.1 C700.4,478.7 702.1,480.4 703.4,482.5 C704.7,484.6 706.8,486.3 709.8,486.8 C711.1,487.2 711.9,488.1 713.2,488.1 C716.6,488.1 719.6,489.8 723,489 C725.6,488.6 728.1,488.1 730.7,487.3 C732.8,486.4 735,485.2 736.2,483 C737.9,480.9 739.2,478.3 740,475.8 C741.3,472 740.9,468.1 740.4,464.3 C740,460.5 738.3,456.6 735.3,453.7 C732.3,450.7 728.9,448.2 725.1,446 C720.4,443 715.3,440.9 710.2,438.3 C705.1,435.3 700,432.8 696.2,428.1 C692.8,424.3 690.2,419.6 689,414 C688.1,410.2 688.1,405.9 688.6,402.1 C689,397.4 690.7,392.7 693.7,388.5 C698,383 703.9,380.8 710.3,379.1 C712.9,378.2 715.4,378.7 718,377.8 C720.6,376.9 723.5,377.4 726.1,377.8 C732.1,378.2 738,379.5 742.7,383.3 C746.5,386.3 749.1,390.1 750.8,394.8 C752.5,399.9 753.8,405 753.8,410.6 C753.8,411.5 753.4,411.9 752.5,411.9 C749.1,411.9 745.7,411.9 742.7,411.9 C741.4,411.9 740.1,411 740.1,409.8 C740.1,408.9 740.1,408.1 740.1,407.2 C740.1,404.2 738.8,397.8 736.3,394.8 C734.2,392.2 731.2,391 727.8,390.1 C726.5,389.7 725.7,389.2 724.4,389.2 C722.3,389.2 720.1,388.8 718,389.2 C712,390.5 706.9,392.6 704,398.6 C703.1,400.7 702.3,402.4 702.7,404.6 C702.7,405.9 702.7,407.2 702.7,408.4 C702.3,413.1 704.4,416.5 707.4,419.5 C710.8,423.3 715.1,426.3 719.7,428.4 C723.5,430.1 727.4,431.8 730.8,433.9 C736.8,437.3 742.7,440.7 747.4,445.8 C750.4,449.2 752.9,453.5 753.8,458.2 C754.7,462.5 755.5,466.7 754.7,471 C753.8,475.3 753.4,479.9 751.3,484.2 C749.6,487.6 747,490.2 744.5,492.7 C742.4,494.4 739.8,495.7 737.7,497 C735.6,498.3 733,498.3 730.5,499.6 L730.1,499.6 C726.3,499.2 722,500.9 718.2,500.5 C715.2,500.1 712.7,500.1 709.7,499.6 C707.1,499.2 704.6,498.3 702,497.5 C695.2,494.5 690.5,489.4 688,482.6 C687.1,480 686.3,476.6 685.9,473.7 C685.5,470.7 685.5,467.7 685,464.8 C685,463.5 685.4,463.5 686.3,463.5 C688.1,462.5 689.8,462.1 691.9,462.5 Z" id="Path" fill-opacity="0.8" fill="#7996A2"></path>
            <path d="M373.7,462.1 C374.1,462.1 374.1,462.1 373.7,462.1 C376.3,462.1 378,462.1 380.1,462.1 C380.1,464.2 380.1,465.9 380.5,468.1 C380.9,471.5 381.4,475.3 383.1,478.7 C384.8,483 388.6,485.9 392.9,487.6 C396.7,488.9 400.1,489.7 404,489.3 C409.1,488.4 414.2,487.6 417.6,483.3 C420.2,480.3 421.9,476.9 421.9,472.7 C421.9,470.6 421.9,468.4 421.9,466.7 C422.3,462 419.8,458.2 417.2,454.3 C414.6,450.9 410.8,448.8 407.4,446.6 C402.3,443.6 396.8,441.1 391.7,438.5 C388.3,436.8 385.3,434.7 382.3,432.5 C379.7,430.8 377.6,428.7 375.9,426.1 C373.3,422.3 371.2,418 370.4,413.3 C370,410.3 369.5,407.8 370,404.8 C370.4,400.5 371.3,396.3 373,392.4 C373.9,391.1 374.7,389.8 375.6,389 C378.2,386.4 380.7,383.5 384.5,381.8 C388.3,380.5 392.6,379.2 396.8,378.8 C399.8,378.4 402.3,377.9 405.3,378.4 C408.3,378.4 411.3,378.4 413.8,379.3 C419.8,381 425.7,383.6 429.1,389.5 C430.4,391.2 431.2,393.3 432.1,395 C433.4,396.7 433.4,399.3 434.2,401 C435.1,402.7 434.6,404.4 435.1,406.5 C435.5,408.2 435.1,410.3 435.1,412 C433.4,412 431.7,412 430,412 C427.9,412 425.3,412 423.2,412 C422.8,412 422.3,411.6 422.3,411.1 C421.9,409 421.9,406.4 421.4,404.3 C420.5,400.9 419.7,397.1 417.1,394.5 C414.5,391.9 411.6,390.7 408.2,389.8 C405.2,388.9 401.8,388.9 398.8,389.4 C395.4,389.8 392.4,391.1 389.4,393.2 C386.4,395.3 384.3,398.7 383.9,402.1 C383,405.9 383,410.2 384.8,414 C386.9,419.1 390.3,422.5 395,425.5 C400.5,428.9 406.5,431.9 412.4,434.9 C418.8,438.3 424.7,442.1 429.4,447.7 C431.5,450.3 433.2,453.7 434.1,457.1 C435.4,461.8 436.7,468.2 435.4,472.4 C434.5,476.7 433.7,480.9 432,484.8 C429.9,489.1 426.9,492.5 422.6,495 C417.9,497.6 413.2,499.7 407.7,499.7 C406.4,499.7 404.7,500.1 403.4,500.6 C402.1,500.6 400.4,500.6 399.1,500.6 C393.6,499.7 388,499.3 382.9,497.2 C375.7,494.2 371,488.7 368.9,481.4 C368,478.4 367.6,475.9 367.2,472.9 C366.8,470.3 366.8,467.8 366.8,465.2 C366.8,464.3 366.8,463.9 368.1,463.9 C369.8,462.5 372,462.1 373.7,462.1 Z" id="Path" fill-opacity="0.8" fill="#7996A2"></path>
            <path d="M237.1,413.1 C235,413.1 233.3,413.1 231.1,413.1 C229.8,413.1 229.8,412.7 229.8,411.8 C229.8,410.1 229.8,408.4 229.8,406.7 C229.4,403.3 228.5,399.5 226.8,396.5 C225.1,393.5 219.6,390.1 216.2,389.3 C214.9,388.9 214.1,388.9 212.8,388.4 C211.5,388.4 209.8,388.4 208.5,388.4 C203.8,388.8 199.6,390.1 196.2,393.5 C194.1,395.6 191.9,397.8 191.1,401.2 C190.7,402.5 189.8,403.8 189.8,405 C189.4,407.1 188.9,409.7 188.9,411.8 C188.9,413.9 187.6,416.1 188,418.6 C188.4,420.7 188.4,423.3 188,425.4 C186.7,430.1 187.6,434.3 187.6,439 C187.6,443.7 187.2,448.4 187.6,452.6 C188,455.6 188,458.1 188.5,461.1 C188.5,462.4 188.9,463.7 189.4,464.9 C189.8,466.2 189.8,467.5 190.3,468.7 C190.7,470 190.7,471.3 191.2,472.5 C192.9,476.8 194.6,481 198.4,483.6 C200.5,484.9 202.7,486.2 205.2,487 C207.8,487.4 209.9,487.9 212,487.4 C215.4,487 219.2,486.5 222.2,484.4 C226,481.8 228.2,478.9 229.4,474.6 C230.3,470.8 231.5,466.5 231.1,462.7 C231.1,461.8 231.5,461.4 232.4,461.4 C236.2,461.4 240.1,461.4 243.9,461.4 C244.8,461.4 244.8,461.8 244.8,462.7 C245.2,468.2 244.4,473.3 242.7,478.5 C240.6,485.3 236.3,490 230.4,493.8 C227.8,495.5 224.9,496.4 221.9,497.2 C221.5,497.2 221.5,497.2 221,497.2 C217.6,496.8 214.2,498.5 210.4,498.1 C204,497.2 197.2,496.8 191.7,493.4 C187,490.8 183.2,487.9 181.1,482.8 C180.2,480.7 179.4,479 178.1,476.8 C176.8,474.2 176.4,471.7 176,469.1 C175.6,467.8 175.6,466.5 175.1,465.3 C175.1,464 175.5,462.7 174.2,461.5 C174.2,461.5 174.2,460.6 174.2,460.2 C174.2,450.8 172.9,441.9 173.3,432.5 C173.3,429.5 173.7,427 174.2,424 C174.2,421 173.8,418.5 174.2,415.5 C174.6,413.8 175.1,412.1 174.6,410 C174.6,408.3 175.9,406.6 175.5,404.5 C176.8,400.7 177.2,396.8 179.8,393 C181.5,390.9 182.4,388.3 184.5,386.6 C188.3,383.2 192.2,380.2 197.3,378.9 C199.9,378 202.4,377.6 205,377.2 C208.4,376.3 211.4,376.3 214.8,376.8 C218.2,376.8 221.6,377.7 224.6,378.5 C227.6,379.4 231,380.6 233.5,382.8 C236.9,385.8 240.3,389.2 241.6,393.9 C242,395.6 243.3,397.3 243.3,399.4 L243.7,399.8 C244.1,403.2 244.1,407 244.6,410.4 C244.6,411.3 244.2,411.7 243.3,411.7 C240.9,413.1 239.2,413.1 237.1,413.1 Z" id="Path" fill-opacity="0.8" fill="#7996A2"></path>
            <path d="M469,434.4 C469,420.8 469,406.7 469,393.1 C469,391 469,391 466.9,391 C462.2,391 457.1,391 452.4,391 C451.5,391 450.7,391 450.7,389.7 C450.7,387.1 450.7,384.2 450.7,381.6 C450.7,380.3 451.1,380.3 452.4,380.3 C457.5,380.3 462.6,380.3 467.7,380.3 C469,380.3 469.4,380.3 469.4,379 C469.4,373 469.4,366.6 469.4,360.7 C469.4,359.4 469.4,357.7 469.8,356.9 C470.2,355.6 471.9,355.6 473.2,355.2 C476.2,353.9 479.2,352.6 482.1,351.4 C483.4,351 483.4,351.4 483.4,352.3 C483.4,361.2 483.4,370.6 483.4,379.6 C483.4,380.9 483.8,381.3 484.7,381.3 C491.1,381.3 497.9,381.3 504.3,381.3 C506.9,381.3 507.3,381.7 507.3,384.3 C507.3,386.9 507.3,389.4 507.3,392 C504.7,392 502.2,392.4 499.6,392.4 C494.5,392.4 489.8,392.4 484.7,392.4 C483.8,392.4 483.4,392.4 483.4,393.3 C483.4,394.2 483.4,395 483.4,395.9 C483.4,421.9 483.4,447.9 483.4,473.8 C483.4,476.8 484.3,479.3 485.1,481.9 C486,484.5 489.4,486.6 492.3,486.6 C497,486.6 501.2,486.6 505.9,486.6 C507.2,486.6 507.6,487 507.2,487.9 C507.2,490.5 507.2,493 507.2,495.6 C507.2,497.3 506.8,498.2 505.1,498.2 C499.1,498.2 493.2,498.6 487.2,498.2 C481.7,497.8 476.6,495.2 473.2,490.5 C471.5,487.9 471.1,485.4 470.6,482.4 C469.3,474.7 470.2,467.1 469.7,459.4 C469,450.1 469,442.1 469,434.4 Z" id="Path" fill-opacity="0.8" fill="#7996A2"></path>
            <path d="M20.1,436.1 C20.1,421.6 20.1,407.6 20.1,393.1 C20.1,390.5 20.1,390.5 17.5,390.5 C12.4,390.5 7.3,390.5 2.2,390.5 C0.9,390.5 0.9,390.1 0.9,388.8 C0.9,385.8 0.9,382.8 1.3,379.9 C4.3,379.9 7.3,379.9 10.2,379.9 C12.8,379.9 14.9,379.9 17.4,379.9 C20.4,379.9 20.4,379.9 20.4,377.3 C20.4,370.5 20.4,363.7 20.4,356.9 C20.4,355.6 20.8,355.6 21.7,355.2 C24.3,354.3 26.8,353.1 29.4,351.8 C30.3,351.4 31.1,350.9 32,350.5 C32.4,350.5 33.3,350.5 33.3,351.4 C33.3,352.3 33.3,353.1 33.3,354 C33.3,362.1 33.3,370.2 33.3,378.3 C33.3,379.6 33.7,380 34.6,380 C41.4,380 48.2,380 55.4,380 C56.7,380 57.1,380.4 57.1,381.7 C57.1,384.7 57.1,387.7 57.1,390.6 C54.1,390.6 51.1,391 48.6,391 C43.9,391 39.7,391 35,391 C33.7,391 33.3,391.4 33.3,392.7 C33.3,393.1 33.3,393.6 33.3,394.4 C33.3,419.5 33.3,444.7 33.3,470.2 C33.3,473.6 33.7,476.6 34.6,480 C35.9,483.8 38.4,486 42.3,486 C47,486 51.2,486 55.9,486 C56.8,486 57.2,486 57.2,486.9 C57.2,489.9 57.2,492.4 57.2,495.4 C57.2,496.7 56.3,497.5 55.1,497.5 C49.1,497.5 43.2,497.9 37.2,497.5 C32.1,497.1 27.4,495.4 24.4,491.1 C22.7,489 21.8,486.8 21,483.9 C20.1,479.2 20.6,474.5 20.6,469.4 C19.7,457.8 20.1,447.2 20.1,436.1 Z" id="Path" fill-opacity="0.8" fill="#7996A2"></path>
            <path d="M626.4,438.2 C626.4,419.9 626.4,402 626.4,383.7 C626.4,382.8 626.4,382 626.4,381.1 C626.4,380.2 626.8,379.8 627.7,379.8 C631.5,379.8 635.4,379.8 639.2,379.8 C640.1,379.8 640.5,380.2 640.5,381.1 C640.5,385.4 640.5,389.6 640.5,393.9 C640.5,394.3 640.9,394.8 640.9,395.2 C641.3,394.8 641.8,394.3 642.2,394.3 C643.1,393.4 643.5,392.6 643.9,391.7 C647.7,385.7 653.3,382.3 659.2,380.2 C663,378.9 667.3,378.1 671.1,377.6 C672.4,377.6 672.4,378 672.4,379.3 C672.4,380.6 672.4,382.3 672.4,383.6 C672.4,386.2 672.4,388.7 672.4,391.3 C669.8,391.3 667.3,391.3 664.7,391.7 C655.3,393 648.1,397.2 643.4,405.8 C642.1,408.4 641.3,410.9 640.4,413.9 C640,416.5 640,419 640,421.6 C640,445.4 640,468.9 640,492.7 C640,493.6 640,494.4 640,495.3 C640,496.6 639.1,497 638.3,497 C634.9,497 631.1,497 627.7,497 C626.8,497 626.4,497 626.4,496.1 C626.4,495.2 626.4,494.4 626.4,493.5 C626.4,474.8 626.4,456.5 626.4,438.2 Z" id="Path" fill-opacity="0.8" fill="#7996A2"></path>
            <path d="M756.2,362.8 C754.9,359 757.1,355.6 759.2,352.6 C761.3,349.6 764.7,348.3 768.1,347.5 C769.8,347.1 771.5,347.1 773.2,347.5 C777.9,348.8 781.3,352.2 783,356.4 C785.1,361.9 783.9,368.8 779.6,372.6 C778.3,373.9 777.5,374.7 775.8,375.6 C772.4,377.7 769,377.3 765.6,376.5 C761.8,375.6 759.2,373.1 757.5,369.7 C756.6,368.4 755.3,365.8 756.2,362.8 Z M782.1,362.8 C782.5,358.5 780.8,355.6 777.8,352.6 C776.1,350.9 774,350 771.8,350 C766.7,349.6 761.6,352.6 759.5,357.2 C758.6,359.3 757.8,361.5 758.2,363.6 C758.2,364.9 759.1,366.6 759.5,367.9 C759.9,369.2 760.8,370.5 761.6,371.7 C763.7,374.7 770.5,376.8 773.9,375.5 C778.3,373.1 782.5,369.2 782.1,362.8 Z" id="Shape" fill-opacity="0.8" fill="#7996A2"></path>
            <path d="M764.7,362.4 C764.7,359.8 764.7,357.3 764.7,354.7 C764.7,354.3 765.1,353.8 765.6,353.8 C768.2,353.8 770.7,353.8 773.3,354.7 C774.6,355.1 775.9,356.4 776.3,357.7 C776.7,359.4 777.2,361.1 775.4,362.4 C774.5,362.8 775,363.7 775.4,364.1 C777.5,365.8 776.3,368.4 776.3,370.5 C776.3,370.5 775.9,370.9 775.4,370.9 C775,370.9 774.1,370.9 774.1,370.5 C774.1,369.6 774.1,368.8 774.1,367.9 C774.1,365.8 773.2,364.9 771.1,364.9 C769.8,364.9 768.5,364.5 767.3,365.3 C766.9,365.7 767.3,367.4 766.9,368.7 C766.9,369.6 766.9,370 766.9,370.4 C766.9,370.8 766,370.8 765.6,370.8 C765.2,370.8 764.3,370.4 764.3,370.4 C764.2,367.5 764.7,365 764.7,362.4 Z M769.8,356.9 C769.4,356.9 768.9,356.9 768.1,356.9 C766.8,356.9 766.4,357.3 766.8,358.2 C766.8,359.1 766.8,359.9 766.8,360.3 C766.8,360.7 767.2,361.2 767.2,361.2 C768.5,361.2 770.2,361.2 771.5,361.2 C771.9,361.2 772.8,360.3 773.2,359.9 C773.6,359.5 774.1,359 773.6,358.2 C772.7,357.8 773.2,356.1 771.9,356.5 C771.1,357.3 770.2,356.9 769.8,356.9 Z" id="Shape" fill-opacity="0.8" fill="#7996A2"></path>
            <polygon id="Path-2" fill="#60A454" points="377.9 226.449435 492.558162 305.5 263.095478 305.5"></polygon>
        </g>
    </g>
</svg>