<svg xmlns="http://www.w3.org/2000/svg" viewBox="0 0 273.42 42.38"><defs><style>.cls-1{fill:#153156;}</style></defs><title>kw-logo</title><g id="Layer_2" data-name="Layer 2"><g id="Layer_1-2" data-name="Layer 1"><path class="cls-1" d="M24.33,9.33,24.58,9,32.94.21A2.13,2.13,0,0,0,33.09,0H24c-.06.07-.11.14-.17.2L16.65,7.37C16,8,15.47,8.6,14.85,9.23L26,20,14.82,31.1l.16.18,6.17,6.31,3.3,3.4h9.34c-.05-.07-.1-.15-.16-.21l-8.77-9.29-.24-.25L35,19.74ZM1.74,26.09.14,24.38c0,.11,0,.17,0,.23q0,8.07,0,16.13a1.79,1.79,0,0,0,0,.24H15.66c-.48-.53-1-1.06-1.44-1.58Zm2.14-14L15.14.22A1.43,1.43,0,0,0,15.28,0H0V16.14A1.58,1.58,0,0,0,.25,16Zm63.46-8H59.19L46.94,17.44V4.12H40.88v30h6.06V25l4.91-5,8.25,14.08H68L56,15.8ZM88.64,27l.06-6.71q0-3.74-.77-5.15a5.72,5.72,0,0,0-2.65-2.31,13.79,13.79,0,0,0-5.73-.91q-4.24,0-6.39,1.51a8.12,8.12,0,0,0-3,4.66l5.22.94a4.2,4.2,0,0,1,1.39-2.12,4.12,4.12,0,0,1,2.4-.6,4.91,4.91,0,0,1,3.09.71A3,3,0,0,1,83,19.36v.57a31.34,31.34,0,0,1-5.59,1.41,19.29,19.29,0,0,0-4.58,1.34,5.75,5.75,0,0,0-2.47,2.21,6.17,6.17,0,0,0-.88,3.28,6.05,6.05,0,0,0,1.94,4.6,7.41,7.41,0,0,0,5.29,1.82,9,9,0,0,0,3.58-.72,10.37,10.37,0,0,0,3.15-2.15q.06.16.21.68.33,1.13.55,1.7h5.69a12.34,12.34,0,0,1-1-2.92A23.3,23.3,0,0,1,88.64,27ZM83,24.82a11.33,11.33,0,0,1-.23,2.8,3.6,3.6,0,0,1-1.37,1.9,5,5,0,0,1-3,1,3.15,3.15,0,0,1-2.29-.88,2.82,2.82,0,0,1-.9-2.09,2.4,2.4,0,0,1,1.13-2,10.56,10.56,0,0,1,3.13-1,35.88,35.88,0,0,0,3.5-.88Zm23.3-12.93a7.79,7.79,0,0,0-4,1,8,8,0,0,0-2.83,2.66V12.38H94.21v30H100V31.43A11,11,0,0,0,103,33.89a7.33,7.33,0,0,0,3.27.72,8.3,8.3,0,0,0,6.45-3q2.66-3,2.66-8.46t-2.64-8.27A8.3,8.3,0,0,0,106.35,11.89Zm1.88,16.54A4.16,4.16,0,0,1,104.9,30a4.45,4.45,0,0,1-3.54-1.75q-1.45-1.75-1.45-5.41a7.23,7.23,0,0,1,1.39-4.82,4.42,4.42,0,0,1,3.5-1.63,4.25,4.25,0,0,1,3.4,1.66,7.85,7.85,0,0,1,1.37,5.07Q109.56,26.83,108.23,28.43ZM120,34.11h5.75V12.38H120Zm0-24.67h5.75V4.12H120Zm19.29,20.4a1.62,1.62,0,0,1-1-.29,1.26,1.26,0,0,1-.51-.73,21.77,21.77,0,0,1-.11-3.1V17h3.93V12.38h-3.93V4.71l-5.77,3.36v4.32h-2.64V17h2.64v9.47a27.82,27.82,0,0,0,.18,4.05,5.32,5.32,0,0,0,.81,2.24,4.09,4.09,0,0,0,1.83,1.35,7.21,7.21,0,0,0,2.81.52,11.45,11.45,0,0,0,4.55-.86l-.49-4.46A7.45,7.45,0,0,1,139.28,29.83ZM163.2,27l.06-6.71q0-3.74-.77-5.15a5.72,5.72,0,0,0-2.65-2.31,13.78,13.78,0,0,0-5.73-.91q-4.24,0-6.39,1.51a8.13,8.13,0,0,0-3,4.66l5.22.94a4.19,4.19,0,0,1,1.39-2.12,4.12,4.12,0,0,1,2.4-.6,4.91,4.91,0,0,1,3.09.71,3,3,0,0,1,.82,2.36v.57A31.35,31.35,0,0,1,152,21.34a19.3,19.3,0,0,0-4.58,1.34A5.75,5.75,0,0,0,145,24.89a6.18,6.18,0,0,0-.88,3.28,6,6,0,0,0,1.94,4.6,7.41,7.41,0,0,0,5.29,1.82,9,9,0,0,0,3.58-.72,10.38,10.38,0,0,0,3.15-2.15q.06.16.2.68.33,1.13.55,1.7h5.69a12.32,12.32,0,0,1-1-2.92A23.24,23.24,0,0,1,163.2,27Zm-5.59-2.15a11.36,11.36,0,0,1-.23,2.8,3.6,3.6,0,0,1-1.37,1.9,5,5,0,0,1-3,1,3.15,3.15,0,0,1-2.29-.88,2.82,2.82,0,0,1-.9-2.09,2.4,2.4,0,0,1,1.13-2,10.56,10.56,0,0,1,3.13-1,35.94,35.94,0,0,0,3.5-.88Zm11.32,9.29h5.75v-30h-5.75Zm37.48-9-5.26-21h-7.21l-5.49,20.6-4.53-20.6h-6.2l7.17,30h6.57l6-22.42,6,22.42h6.43l7.29-30H211Zm13.39,9h5.75V12.38H219.8Zm0-24.67h5.75V4.12H219.8Zm21.72,11q-4.6-1-5.38-1.62a1.27,1.27,0,0,1-.57-1,1.36,1.36,0,0,1,.66-1.17,6.26,6.26,0,0,1,3.26-.63,4.83,4.83,0,0,1,2.77.68,3.35,3.35,0,0,1,1.32,1.94l5.43-1a7.43,7.43,0,0,0-3-4.3q-2.17-1.45-6.63-1.45-4.69,0-6.92,1.92a6,6,0,0,0-2.23,4.75,5.6,5.6,0,0,0,2.58,4.89q1.86,1.27,8.83,2.8a4.6,4.6,0,0,1,1.93.76A1.51,1.51,0,0,1,244,28.1a1.83,1.83,0,0,1-.76,1.53,5.7,5.7,0,0,1-3.36.82,5.05,5.05,0,0,1-3.15-.87A4.23,4.23,0,0,1,235.2,27l-5.77.88a8.3,8.3,0,0,0,3.39,4.89,12.14,12.14,0,0,0,7,1.8q4.89,0,7.39-2.15a6.56,6.56,0,0,0,2.5-5.14,5.31,5.31,0,0,0-1.8-4.28Q246.11,21.53,241.52,20.48ZM266,29.57a3.53,3.53,0,0,1-2.27.74,4.36,4.36,0,0,1-3.32-1.42,5.81,5.81,0,0,1-1.39-4h14.42q.12-6.61-2.68-9.81a9.66,9.66,0,0,0-7.66-3.2,9.31,9.31,0,0,0-7.15,3.06Q253.1,18,253.1,23.41a12.43,12.43,0,0,0,2.15,7.49q2.72,3.7,8.4,3.7a10.27,10.27,0,0,0,6-1.65,9.4,9.4,0,0,0,3.49-4.8l-5.73-1A4.55,4.55,0,0,1,266,29.57Zm-5.67-11.91a4.16,4.16,0,0,1,6.1-.07,5.53,5.53,0,0,1,1.29,3.8h-8.6A5.3,5.3,0,0,1,260.31,17.66Z"/></g></g></svg>