<svg xmlns="http://www.w3.org/2000/svg" viewBox="0 0 50.03 58.56"><defs><style>.cls-1{opacity:0.3;}.cls-2{fill:#fff;}</style></defs><title>kw-symbol</title><g id="Layer_2" data-name="Layer 2"><g id="Layer_1-2" data-name="Layer 1"><g class="cls-1"><path class="cls-2" d="M34.94,58.56l-4.72-4.85-8.82-9-.23-.25L37.13,28.63,21.22,13.19c.87-.91,1.71-1.8,2.57-2.66L34.07.29c.09-.09.17-.19.25-.29h13a3,3,0,0,1-.22.3L35.13,12.93l-.37.4L50,28.2,35.18,44.62l.34.36L48,58.26c.09.09.16.2.23.3Z"/><path class="cls-2" d="M.23,58.56a2.5,2.5,0,0,1,0-.34q0-11.53,0-23.05c0-.08,0-.17,0-.33l2.29,2.44,17.82,19c.69.74,1.37,1.5,2.05,2.25Z"/><path class="cls-2" d="M21.83,0a2,2,0,0,1-.2.31l-16.08,17L.36,22.81a2.27,2.27,0,0,1-.36.26V0Z"/></g></g></g></svg>