<svg xmlns="http://www.w3.org/2000/svg" viewBox="0 0 212.48 32.93"><defs><style>.cls-1{fill:#fff;}</style></defs><title>kw-white-logo</title><g id="Layer_2" data-name="Layer 2"><g id="Layer_1-2" data-name="Layer 1"><path class="cls-1" d="M18.91,7.25l.2-.22L25.6.16A1.61,1.61,0,0,0,25.72,0h-7l-.14.16L12.94,5.73c-.47.47-.92,1-1.4,1.45l8.65,8.4-8.67,8.6.12.14,4.79,4.9L19,31.85h7.26c0-.05-.08-.11-.13-.16l-6.82-7.22-.18-.2,8.08-8.93Zm-17.55,13L.11,18.95c0,.09,0,.13,0,.18q0,6.27,0,12.54a1.36,1.36,0,0,0,0,.18h12c-.37-.41-.74-.82-1.12-1.22ZM3,9.42,11.76.17A1.09,1.09,0,0,0,11.87,0H0V12.55a1.24,1.24,0,0,0,.2-.14ZM52.33,3.2H46L36.48,13.55V3.2H31.77V26.51h4.71v-7l3.82-3.9,6.41,10.94h6.09L43.54,12.28ZM68.88,21l0-5.22a9.21,9.21,0,0,0-.6-4,4.45,4.45,0,0,0-2.06-1.8,10.71,10.71,0,0,0-4.46-.71,8.63,8.63,0,0,0-5,1.18A6.31,6.31,0,0,0,54.49,14l4.06.73a3.26,3.26,0,0,1,1.08-1.65,3.2,3.2,0,0,1,1.86-.47,3.82,3.82,0,0,1,2.4.55A2.31,2.31,0,0,1,64.54,15v.45a24.36,24.36,0,0,1-4.34,1.1,15,15,0,0,0-3.56,1,4.47,4.47,0,0,0-1.92,1.72A4.8,4.8,0,0,0,54,21.9a4.7,4.7,0,0,0,1.5,3.58,5.76,5.76,0,0,0,4.11,1.42,7,7,0,0,0,2.78-.56,8.06,8.06,0,0,0,2.45-1.67q0,.13.16.52.25.87.43,1.32H69.9a9.56,9.56,0,0,1-.8-2.27A18.08,18.08,0,0,1,68.88,21Zm-4.34-1.67a8.81,8.81,0,0,1-.18,2.18,2.8,2.8,0,0,1-1.07,1.48,3.87,3.87,0,0,1-2.31.8,2.45,2.45,0,0,1-1.78-.68,2.19,2.19,0,0,1-.7-1.62,1.86,1.86,0,0,1,.88-1.57,8.21,8.21,0,0,1,2.43-.78,27.94,27.94,0,0,0,2.72-.68Zm18.11-10a6.06,6.06,0,0,0-3.07.79,6.24,6.24,0,0,0-2.2,2.07V9.62H73.21V32.93h4.47V24.43a8.55,8.55,0,0,0,2.4,1.91,5.7,5.7,0,0,0,2.54.56,6.45,6.45,0,0,0,5-2.35A9.61,9.61,0,0,0,89.7,18a9.33,9.33,0,0,0-2.05-6.42A6.45,6.45,0,0,0,82.65,9.24ZM84.11,22.1a3.23,3.23,0,0,1-2.59,1.25A3.46,3.46,0,0,1,78.76,22a6.5,6.5,0,0,1-1.13-4.21A5.62,5.62,0,0,1,78.72,14a3.43,3.43,0,0,1,2.72-1.26,3.3,3.3,0,0,1,2.64,1.29A6.1,6.1,0,0,1,85.14,18,6.43,6.43,0,0,1,84.11,22.1Zm9.13,4.41h4.47V9.62H93.24Zm0-19.18h4.47V3.2H93.24Zm15,15.85a1.26,1.26,0,0,1-.76-.22,1,1,0,0,1-.4-.56A16.91,16.91,0,0,1,107,20V13.18h3.06V9.62H107v-6l-4.49,2.61V9.62h-2.05v3.56h2.05v7.36a21.64,21.64,0,0,0,.14,3.15,4.14,4.14,0,0,0,.63,1.74,3.18,3.18,0,0,0,1.42,1,5.61,5.61,0,0,0,2.18.41,8.9,8.9,0,0,0,3.53-.67L110,22.76A5.79,5.79,0,0,1,108.24,23.18ZM126.82,21l0-5.22a9.21,9.21,0,0,0-.6-4,4.45,4.45,0,0,0-2.06-1.8,10.71,10.71,0,0,0-4.46-.71,8.63,8.63,0,0,0-5,1.18A6.31,6.31,0,0,0,112.44,14l4.06.73a3.26,3.26,0,0,1,1.08-1.65,3.2,3.2,0,0,1,1.86-.47,3.82,3.82,0,0,1,2.4.55,2.31,2.31,0,0,1,.64,1.84v.45a24.36,24.36,0,0,1-4.34,1.1,15,15,0,0,0-3.56,1,4.47,4.47,0,0,0-1.92,1.72A4.8,4.8,0,0,0,112,21.9a4.7,4.7,0,0,0,1.5,3.58,5.76,5.76,0,0,0,4.11,1.42,7,7,0,0,0,2.79-.56,8.06,8.06,0,0,0,2.45-1.67q0,.13.16.52.25.87.43,1.32h4.42a9.57,9.57,0,0,1-.8-2.27A18.09,18.09,0,0,1,126.82,21Zm-4.34-1.67a8.81,8.81,0,0,1-.18,2.18,2.8,2.8,0,0,1-1.07,1.48,3.87,3.87,0,0,1-2.31.8,2.45,2.45,0,0,1-1.78-.68,2.19,2.19,0,0,1-.7-1.62,1.86,1.86,0,0,1,.88-1.57,8.21,8.21,0,0,1,2.43-.78,27.94,27.94,0,0,0,2.72-.68Zm8.8,7.22h4.47V3.2h-4.47Zm29.12-7L156.31,3.2h-5.6l-4.27,16-3.52-16h-4.82l5.57,23.31h5.11l4.63-17.43,4.65,17.43h5L168.73,3.2H164ZM170.81,7.33h4.47V3.2h-4.47Zm0,19.18h4.47V9.62h-4.47Zm16.88-10.59a16.78,16.78,0,0,1-4.18-1.26,1,1,0,0,1-.45-.81,1.06,1.06,0,0,1,.51-.91,4.86,4.86,0,0,1,2.53-.49,3.76,3.76,0,0,1,2.16.52,2.61,2.61,0,0,1,1,1.51l4.22-.78a5.77,5.77,0,0,0-2.32-3.34A9.39,9.39,0,0,0,186,9.24q-3.64,0-5.38,1.49a4.68,4.68,0,0,0-1.73,3.69,4.35,4.35,0,0,0,2,3.8q1.45,1,6.86,2.18a3.57,3.57,0,0,1,1.5.59,1.17,1.17,0,0,1,.32.84A1.42,1.42,0,0,1,189,23a4.43,4.43,0,0,1-2.61.64,3.93,3.93,0,0,1-2.45-.68,3.28,3.28,0,0,1-1.16-2l-4.49.68a6.45,6.45,0,0,0,2.63,3.8,9.43,9.43,0,0,0,5.47,1.4,8.6,8.6,0,0,0,5.75-1.67,5.1,5.1,0,0,0,1.94-4,4.13,4.13,0,0,0-1.4-3.32A12.44,12.44,0,0,0,187.69,15.92Zm19,7.06a2.74,2.74,0,0,1-1.77.57,3.39,3.39,0,0,1-2.58-1.11,4.52,4.52,0,0,1-1.08-3.09h11.2q.1-5.14-2.08-7.62a7.51,7.51,0,0,0-6-2.49,7.24,7.24,0,0,0-5.55,2.38,9.32,9.32,0,0,0-2.2,6.57A9.66,9.66,0,0,0,198.36,24q2.12,2.88,6.52,2.88a8,8,0,0,0,4.64-1.28,7.3,7.3,0,0,0,2.71-3.73l-4.46-.75A3.53,3.53,0,0,1,206.7,23Zm-4.41-9.25a3.23,3.23,0,0,1,4.74-.06,4.3,4.3,0,0,1,1,2.95h-6.68A4.12,4.12,0,0,1,202.29,13.72Z"/></g></g></svg>